<svg width="2134" height="1855" viewBox="0 0 2134 1855" fill="none" xmlns="http://www.w3.org/2000/svg">
<g clip-path="url(#clip0_5972_13617)">
<path d="M77.2917 488.803C90.2937 637.942 92.8001 793.819 93.5834 943.82C92.8001 1093.82 90.4504 1249.54 77.2917 1398.84C64.133 1249.7 61.7833 1093.82 61 943.82C61.7833 793.819 64.2113 638.099 77.2917 488.803Z" fill="#FAFAFA"/>
<path d="M128.282 606.533C141.284 755.673 143.79 911.549 144.573 1061.55C143.79 1211.55 141.44 1367.27 128.282 1516.57C115.201 1367.43 112.773 1211.55 111.99 1061.55C112.773 911.549 115.201 755.83 128.282 606.533Z" fill="#FAFAFA"/>
<path d="M179.35 700.686C192.352 849.825 194.858 1005.7 195.641 1155.7C194.858 1305.7 192.508 1461.42 179.35 1610.72C166.269 1461.58 163.841 1305.7 163.058 1155.7C163.841 1005.7 166.269 849.982 179.35 700.686Z" fill="#FAFAFA"/>
<path d="M230.418 761.391C243.42 910.53 245.926 1066.41 246.71 1216.41C245.926 1366.41 243.577 1522.13 230.418 1671.43C217.338 1522.29 214.909 1366.41 214.126 1216.41C214.909 1066.41 217.338 910.687 230.418 761.391Z" fill="#FAFAFA"/>
<path d="M281.408 831.025C294.41 980.165 296.916 1136.04 297.699 1286.04C296.916 1436.04 294.566 1591.76 281.408 1741.06C268.327 1591.92 265.899 1436.04 265.116 1286.04C265.899 1136.04 268.327 980.322 281.408 831.025Z" fill="#FAFAFA"/>
<path d="M332.476 870.269C345.478 1019.41 347.984 1175.28 348.768 1325.29C347.984 1475.29 345.635 1631.01 332.476 1780.3C319.396 1631.16 316.968 1475.29 316.184 1325.29C316.968 1175.28 319.396 1019.56 332.476 870.269Z" fill="#FAFAFA"/>
<path d="M383.466 891.967C396.468 1041.11 398.974 1196.98 399.758 1346.98C398.974 1496.99 396.625 1652.7 383.466 1802C370.386 1652.86 367.957 1496.99 367.174 1346.98C367.957 1196.98 370.386 1041.26 383.466 891.967Z" fill="#FAFAFA"/>
<path d="M740.708 488.803C753.71 637.942 756.217 793.819 757 943.82C756.217 1093.82 753.867 1249.54 740.708 1398.84C727.628 1249.7 725.2 1093.82 724.417 943.82C725.2 793.819 727.628 638.099 740.708 488.803Z" fill="#FAFAFA"/>
<path d="M689.64 606.533C702.642 755.673 705.148 911.549 705.932 1061.55C705.148 1211.55 702.799 1367.27 689.64 1516.57C676.56 1367.43 674.132 1211.55 673.348 1061.55C674.132 911.549 676.56 755.83 689.64 606.533Z" fill="#FAFAFA"/>
<path d="M638.65 700.686C651.652 849.825 654.159 1005.7 654.942 1155.7C654.159 1305.7 651.809 1461.42 638.65 1610.72C625.57 1461.58 623.142 1305.7 622.358 1155.7C623.142 1005.7 625.57 849.982 638.65 700.686Z" fill="#FAFAFA"/>
<path d="M587.582 761.391C600.584 910.53 603.09 1066.41 603.874 1216.41C603.09 1366.41 600.741 1522.13 587.582 1671.43C574.502 1522.29 572.074 1366.41 571.29 1216.41C572.074 1066.41 574.502 910.687 587.582 761.391Z" fill="#FAFAFA"/>
<path d="M536.592 831.025C549.594 980.165 552.101 1136.04 552.884 1286.04C552.101 1436.04 549.751 1591.76 536.592 1741.06C523.512 1591.92 521.084 1436.04 520.3 1286.04C521.084 1136.04 523.512 980.322 536.592 831.025Z" fill="#FAFAFA"/>
<path d="M485.524 870.269C498.526 1019.41 501.032 1175.28 501.816 1325.29C501.032 1475.29 498.683 1631.01 485.524 1780.3C472.444 1631.16 470.015 1475.29 469.232 1325.29C470.015 1175.28 472.444 1019.56 485.524 870.269Z" fill="#FAFAFA"/>
<path d="M434.534 891.967C447.536 1041.11 450.042 1196.98 450.826 1346.98C450.042 1496.99 447.693 1652.7 434.534 1802C421.454 1652.86 419.026 1496.99 418.242 1346.98C419.026 1196.98 421.454 1041.26 434.534 891.967Z" fill="#FAFAFA"/>
<path d="M791.698 1333.2C778.696 1184.06 776.19 1028.18 775.406 878.18C776.19 728.179 778.539 572.46 791.698 423.163C804.778 572.303 807.207 728.179 807.99 878.18C807.207 1028.18 804.778 1183.9 791.698 1333.2Z" fill="#FAFAFA"/>
<path d="M842.766 1215.47C829.764 1066.33 827.258 910.452 826.475 760.451C827.258 610.449 829.608 454.73 842.766 305.434C855.847 454.573 858.275 610.449 859.058 760.451C858.275 910.452 855.847 1066.17 842.766 1215.47Z" fill="#FAFAFA"/>
<path d="M893.756 1121.31C880.754 972.175 878.248 816.299 877.464 666.298C878.248 516.296 880.598 360.577 893.756 211.28C906.837 360.42 909.265 516.296 910.048 666.298C909.265 816.299 906.837 972.018 893.756 1121.31Z" fill="#FAFAFA"/>
<path d="M944.824 1060.61C931.822 911.47 929.316 755.594 928.533 605.592C929.316 455.591 931.666 299.872 944.824 150.575C957.905 299.715 960.333 455.591 961.116 605.592C960.333 755.594 957.905 911.313 944.824 1060.61Z" fill="#FAFAFA"/>
<path d="M995.893 990.975C982.891 841.835 980.384 685.959 979.601 535.958C980.384 385.956 982.734 230.237 995.893 80.9404C1008.97 230.08 1011.4 385.956 1012.18 535.958C1011.4 685.959 1008.97 841.679 995.893 990.975Z" fill="#FAFAFA"/>
<path d="M1046.88 951.732C1033.88 802.592 1031.37 646.716 1030.59 496.715C1031.37 346.713 1033.72 190.994 1046.88 41.6973C1059.96 190.837 1062.39 346.713 1063.17 496.715C1062.39 646.716 1059.96 802.435 1046.88 951.732Z" fill="#FAFAFA"/>
<path d="M1097.95 930.035C1084.95 780.895 1082.44 625.019 1081.66 475.017C1082.44 325.016 1084.79 169.296 1097.95 20C1111.03 169.14 1113.46 325.016 1114.24 475.017C1113.46 625.019 1111.03 780.738 1097.95 930.035Z" fill="#FAFAFA"/>
<path d="M1455.11 1333.2C1442.11 1184.06 1439.61 1028.18 1438.82 878.18C1439.61 728.179 1441.96 572.46 1455.11 423.163C1468.19 572.303 1470.62 728.179 1471.41 878.18C1470.62 1028.18 1468.19 1183.9 1455.11 1333.2Z" fill="#FAFAFA"/>
<path d="M1404.12 1215.47C1391.12 1066.33 1388.62 910.452 1387.83 760.451C1388.62 610.449 1390.97 454.73 1404.12 305.434C1417.21 454.573 1419.63 610.449 1420.42 760.451C1419.63 910.452 1417.21 1066.17 1404.12 1215.47Z" fill="#FAFAFA"/>
<path d="M1353.06 1121.31C1340.05 972.175 1337.55 816.299 1336.76 666.298C1337.55 516.296 1339.9 360.577 1353.06 211.28C1366.14 360.42 1368.56 516.296 1369.35 666.298C1368.56 816.299 1366.14 972.018 1353.06 1121.31Z" fill="#FAFAFA"/>
<path d="M1302.07 1060.61C1289.06 911.47 1286.56 755.594 1285.77 605.592C1286.56 455.591 1288.91 299.872 1302.07 150.575C1315.15 299.715 1317.58 455.591 1318.36 605.592C1317.58 755.594 1315.15 911.313 1302.07 1060.61Z" fill="#FAFAFA"/>
<path d="M1251 990.975C1238 841.835 1235.49 685.959 1234.71 535.958C1235.49 385.956 1237.84 230.237 1251 80.9404C1264.08 230.08 1266.51 385.956 1267.29 535.958C1266.51 685.959 1264.08 841.679 1251 990.975Z" fill="#FAFAFA"/>
<path d="M1200.01 951.732C1187.01 802.592 1184.5 646.716 1183.72 496.715C1184.5 346.713 1186.85 190.994 1200.01 41.6973C1213.09 190.837 1215.52 346.713 1216.3 496.715C1215.52 646.716 1213.09 802.435 1200.01 951.732Z" fill="#FAFAFA"/>
<path d="M1148.94 930.034C1135.94 780.895 1133.43 625.018 1132.65 475.017C1133.43 325.016 1135.86 169.375 1148.94 20.0781C1162.02 169.218 1164.45 325.094 1165.23 475.095C1164.45 625.097 1162.02 780.816 1148.94 930.113V930.034Z" fill="#FAFAFA"/>
<path d="M1504.29 488.803C1517.29 637.942 1519.8 793.819 1520.58 943.82C1519.8 1093.82 1517.45 1249.54 1504.29 1398.84C1491.13 1249.7 1488.78 1093.82 1488 943.82C1488.78 793.819 1491.21 638.099 1504.29 488.803Z" fill="#FAFAFA"/>
<path d="M1555.28 606.533C1568.28 755.673 1570.79 911.549 1571.57 1061.55C1570.79 1211.55 1568.44 1367.27 1555.28 1516.57C1542.2 1367.43 1539.77 1211.55 1538.99 1061.55C1539.77 911.549 1542.2 755.83 1555.28 606.533Z" fill="#FAFAFA"/>
<path d="M1606.35 700.686C1619.35 849.825 1621.86 1005.7 1622.64 1155.7C1621.86 1305.7 1619.51 1461.42 1606.35 1610.72C1593.27 1461.58 1590.84 1305.7 1590.06 1155.7C1590.84 1005.7 1593.27 849.982 1606.35 700.686Z" fill="#FAFAFA"/>
<path d="M1657.42 761.391C1670.42 910.53 1672.93 1066.41 1673.71 1216.41C1672.93 1366.41 1670.58 1522.13 1657.42 1671.43C1644.34 1522.29 1641.91 1366.41 1641.13 1216.41C1641.91 1066.41 1644.34 910.687 1657.42 761.391Z" fill="#FAFAFA"/>
<path d="M1708.41 831.025C1721.41 980.165 1723.92 1136.04 1724.7 1286.04C1723.92 1436.04 1721.57 1591.76 1708.41 1741.06C1695.33 1591.92 1692.9 1436.04 1692.12 1286.04C1692.9 1136.04 1695.33 980.322 1708.41 831.025Z" fill="#FAFAFA"/>
<path d="M1759.48 870.269C1772.48 1019.41 1774.98 1175.28 1775.77 1325.29C1774.98 1475.29 1772.63 1631.01 1759.48 1780.3C1746.4 1631.16 1743.97 1475.29 1743.18 1325.29C1743.97 1175.28 1746.4 1019.56 1759.48 870.269Z" fill="#FAFAFA"/>
<path d="M1810.47 891.967C1823.47 1041.11 1825.97 1196.98 1826.76 1346.98C1825.97 1496.99 1823.62 1652.7 1810.47 1802C1797.39 1652.86 1794.96 1496.99 1794.17 1346.98C1794.96 1196.98 1797.39 1041.26 1810.47 891.967Z" fill="#FAFAFA"/>
<path d="M2116.64 606.533C2129.64 755.673 2132.15 911.549 2132.93 1061.55C2132.15 1211.55 2129.8 1367.27 2116.64 1516.57C2103.56 1367.43 2101.13 1211.55 2100.35 1061.55C2101.13 911.549 2103.56 755.83 2116.64 606.533Z" fill="#FAFAFA"/>
<path d="M2065.65 700.686C2078.65 849.825 2081.16 1005.7 2081.94 1155.7C2081.16 1305.7 2078.81 1461.42 2065.65 1610.72C2052.57 1461.58 2050.14 1305.7 2049.36 1155.7C2050.14 1005.7 2052.57 849.982 2065.65 700.686Z" fill="#FAFAFA"/>
<path d="M2014.58 761.391C2027.58 910.53 2030.09 1066.41 2030.87 1216.41C2030.09 1366.41 2027.74 1522.13 2014.58 1671.43C2001.5 1522.29 1999.07 1366.41 1998.29 1216.41C1999.07 1066.41 2001.5 910.687 2014.58 761.391Z" fill="#FAFAFA"/>
<path d="M1963.59 831.025C1976.59 980.165 1979.1 1136.04 1979.88 1286.04C1979.1 1436.04 1976.75 1591.76 1963.59 1741.06C1950.51 1591.92 1948.08 1436.04 1947.3 1286.04C1948.08 1136.04 1950.51 980.322 1963.59 831.025Z" fill="#FAFAFA"/>
<path d="M1912.52 870.269C1925.53 1019.41 1928.03 1175.28 1928.82 1325.29C1928.03 1475.29 1925.68 1631.01 1912.52 1780.3C1899.44 1631.16 1897.02 1475.29 1896.23 1325.29C1897.02 1175.28 1899.44 1019.56 1912.52 870.269Z" fill="#FAFAFA"/>
<path d="M1861.53 891.967C1874.54 1041.11 1877.04 1196.98 1877.83 1346.98C1877.04 1496.99 1874.69 1652.7 1861.53 1802C1848.45 1652.86 1846.03 1496.99 1845.24 1346.98C1846.03 1196.98 1848.45 1041.26 1861.53 891.967Z" fill="#FAFAFA"/>
</g>
<defs>
<clipPath id="clip0_5972_13617">
<rect width="2134" height="1855" fill="white"/>
</clipPath>
</defs>
</svg>
