<svg width="700" height="375" viewBox="0 0 700 375" fill="none" xmlns="http://www.w3.org/2000/svg">
<rect width="700" height="374.859" fill="#231F20"/>
<g clip-path="url(#clip0_6727_9840)">
<path d="M413.595 38.6699C418.354 113.15 418.379 187.757 416.541 262.338C415.861 287.19 414.879 312.042 413.016 336.894H410.7C405.665 262.439 405.337 187.807 406.898 113.226C407.477 88.3739 408.384 63.5219 410.121 38.6699H413.595Z" fill="white"/>
<path d="M388.016 59.4717C384.995 71.3443 380.01 96.9761 380.01 136.543C380.01 176.11 385.02 201.742 388.016 213.614H390.231V59.4717H388.016Z" fill="white"/>
<path d="M356.369 178.626C344.209 151.158 344.36 118.181 356.369 90.7129L357.88 91.2663C351.309 112.295 349.823 134.782 352.996 156.54C354.129 163.785 355.74 170.954 357.88 178.047L356.369 178.6V178.626Z" fill="white"/>
<path d="M370.695 194.346C357.527 156.943 357.729 112.446 370.695 75.0166L373.187 75.6958C367.296 104.824 366.037 134.707 368.832 164.237C369.813 174.072 371.324 183.857 373.187 193.642L370.72 194.321L370.695 194.346Z" fill="white"/>
<path d="M442.774 239.021C442.774 199.479 437.764 173.822 434.768 161.949H432.553V316.092H434.768C437.789 304.219 442.774 278.588 442.774 239.021Z" fill="white"/>
<path d="M466.415 196.913C478.575 224.381 478.424 257.358 466.415 284.826L464.904 284.272C471.475 263.244 472.961 240.756 469.789 218.998C468.656 211.754 467.044 204.585 464.904 197.492L466.415 196.938V196.913Z" fill="white"/>
<path d="M452.09 181.217C465.257 218.621 465.056 263.118 452.09 300.547L449.598 299.867C455.489 270.739 456.748 240.857 453.953 211.326C452.971 201.491 451.461 191.706 449.598 181.921L452.065 181.242L452.09 181.217Z" fill="white"/>
<path d="M275.276 327.135L273.841 324.67C274.621 324.318 276.157 323.311 277.189 322.129C278.775 320.293 279.354 318.557 279.354 316.042V310.911H282.174V316.218C282.174 317.098 282.073 317.878 281.922 318.633C283.282 320.57 285.9 322.884 287.713 324.041L286.379 326.481C284.667 325.399 282.501 323.387 280.966 321.375C280.638 322.003 280.21 322.632 279.732 323.286C278.398 325.022 276.409 326.506 275.226 327.135H275.276ZM290.432 316.092V310.231H293.227V331.034H290.432V318.708H285.976V316.067H290.432V316.092Z" fill="white"/>
<path d="M305.991 322.355V320.695H297.229V318.456H317.673V320.695H308.937V322.355H314.954V327.814H302.819V329.424H315.407V331.562H300.024V325.977H312.159V324.443H299.898V322.38H306.016L305.991 322.355ZM315.18 313.652C315.18 316.268 312.335 317.551 307.426 317.551C302.517 317.551 299.747 316.243 299.747 313.652C299.747 311.061 302.542 309.678 307.426 309.678C312.31 309.678 315.18 311.036 315.18 313.652ZM302.542 313.652C302.542 314.809 304.027 315.363 307.426 315.363C310.825 315.363 312.361 314.784 312.361 313.652C312.361 312.52 310.774 311.841 307.426 311.841C304.077 311.841 302.542 312.495 302.542 313.652Z" fill="white"/>
<path d="M328.146 310.936V313.728C328.146 316.142 327.265 318.029 325.176 319.387C323.816 320.318 321.701 320.947 320.316 321.098L319.863 318.607C320.845 318.457 322.356 318.054 323.287 317.551C324.873 316.671 325.427 315.614 325.427 314.004V313.35H320.593V310.91H328.121L328.146 310.936ZM338.67 321.576V327.462H326.711V329.373H339.224V331.587H323.892V325.449H335.875V323.714H323.791V321.576H338.695H338.67ZM338.695 310.206V320.343H336.001V316.318H332.98V320.318H330.286V310.282H332.98V313.904H336.001V310.206H338.695Z" fill="white"/>
<path d="M353.75 311.288V319.991H346.424V324.242H348.262C349.823 324.242 353.549 324.091 355.815 323.437L356.117 325.902C353.649 326.581 349.797 326.732 348.085 326.732H343.68V317.752H351.031V313.652H343.428V311.288H353.7H353.75ZM361.328 310.231V331.034H358.534V319.614H355.009V316.948H358.534V310.231H361.328Z" fill="white"/>
<path d="M377.593 311.288V319.991H369.562V324.242H371.525C373.086 324.242 377.19 324.016 379.179 323.387L379.481 325.827C377.366 326.556 373.061 326.707 371.349 326.707H366.843V317.727H374.849V313.627H366.591V311.263H377.593V311.288ZM384.189 310.231V331.034H381.395V310.231H384.189Z" fill="white"/>
<path d="M324.823 258.741C332.427 258.741 338.595 252.578 338.595 244.982C338.595 237.385 332.427 231.223 324.823 231.223C317.22 231.223 311.052 237.385 311.052 244.982C311.052 252.578 317.22 258.741 324.823 258.741ZM316.012 244.982C316.012 240.127 319.964 236.178 324.823 236.178C329.682 236.178 333.635 240.127 333.635 244.982C333.635 249.836 329.682 253.786 324.823 253.786C319.964 253.786 316.012 249.836 316.012 244.982Z" fill="#EE3E79"/>
<path d="M309.038 231.852H291.339V258.439H309.038V253.962H296.299V247.145H306.822V242.693H296.299V236.304H309.038V231.852Z" fill="white"/>
<path d="M365.08 231.852H360.095V248.126C360.095 251.396 357.426 254.062 354.153 254.062C350.88 254.062 348.363 251.547 348.211 248.403V231.852H343.227V247.824C343.227 253.836 348.111 258.741 354.128 258.741C360.145 258.741 364.903 253.987 365.054 248.076V231.852H365.08Z" fill="white"/>
<path d="M387.79 253.962H375.73V231.852H370.745V258.439H387.79V253.962Z" fill="white"/>
<path d="M276.812 242.542C274.772 242.14 271.323 241.184 271.147 239.272C271.072 238.467 271.348 237.713 271.953 237.134C272.809 236.279 274.244 235.826 275.88 235.877C278.297 235.927 280.311 236.983 281.872 239.172L285.649 237.21C283.383 233.11 279.329 231.273 275.88 231.273C271.625 231.273 269.284 232.908 268.05 234.191C266.716 235.6 266.036 237.386 266.112 239.247C266.263 243.398 269.158 245.737 275.805 247.07C277.517 247.447 281.52 248.554 281.52 250.868C281.52 251.573 281.092 252.428 280.462 253.057C279.153 254.314 276.912 254.516 275.1 254.289C273.363 254.088 269.762 252.83 268.252 249.787L264.903 252.73C266.515 255.849 270.442 258.741 276.157 258.792C279.556 258.792 282.628 257.685 284.616 255.748C286.077 254.34 286.857 252.528 286.857 250.692C286.857 246.592 283.383 243.8 276.787 242.593L276.812 242.542Z" fill="#45B97C"/>
<path d="M286.303 268.274H281.318V294.862H298.363V290.385H286.303V268.274Z" fill="#FDB933"/>
<path d="M306.822 268.274H301.862V294.862H318.882V290.385H306.822V268.274Z" fill="white"/>
<path d="M327.367 283.568H337.865V279.116H327.367V272.752H340.106V268.274H322.382V294.862H340.106V290.385H327.367V283.568Z" fill="white"/>
<path d="M390.282 268.274H384.945L377.895 280.348L370.821 268.274H365.483L375.378 285.178V294.862H380.388V285.178L390.282 268.274Z" fill="#27AAE1"/>
<path d="M251.963 279.77H237.738V284.247H246.625C245.442 287.718 242.169 290.209 238.292 290.209C233.433 290.209 229.48 286.259 229.48 281.405C229.48 276.55 233.433 272.601 238.292 272.601C241.615 272.601 244.51 274.437 245.996 277.179L249.596 273.582C247.104 269.985 242.949 267.646 238.267 267.646C230.663 267.646 224.495 273.808 224.495 281.405C224.495 289.001 230.663 295.164 238.267 295.164C245.87 295.164 252.038 289.001 252.038 281.405C252.038 280.851 252.013 280.298 251.937 279.77H251.963Z" fill="white"/>
<path d="M360.171 294.862H365.508L359.819 283.895C362.739 282.662 364.778 279.77 364.778 276.399C364.778 271.922 361.128 268.274 356.646 268.274H344.234V294.862H349.219V284.549H354.808L360.171 294.862ZM349.219 272.752H356.143C358.157 272.752 359.793 274.387 359.793 276.399C359.793 278.411 358.157 280.046 356.143 280.046H349.219V272.727V272.752Z" fill="white"/>
<path d="M278.272 294.862L268.831 268.274H261.505L252.063 294.862H257.3L265.18 272.676L273.035 294.862H278.272Z" fill="white"/>
</g>
<defs>
<clipPath id="clip0_6727_9840">
<rect width="250.958" height="298.224" fill="white" transform="translate(224.521 38.6699)"/>
</clipPath>
</defs>
</svg>
