<svg width="630" height="182" viewBox="0 0 630 182" fill="none" xmlns="http://www.w3.org/2000/svg">
<path d="M40.002 0C17.9106 0 0.00195312 17.9086 0.00195312 40V142C0.0019533 164.091 17.9106 182 40.002 182H40C17.9086 182 1.77196e-07 164.091 0 142V40C0 17.9086 17.9086 9.73123e-07 40 0H40.002ZM631.002 182H148.424C166.008 182 181.531 170.516 186.675 153.7L210.899 74.502C216.043 57.6864 231.566 46.2021 249.15 46.2021H588.859C610.951 46.2021 628.859 28.2935 628.859 6.20215V1C628.859 0.447819 628.412 0.0001686 627.859 0H631.002V182Z" fill="white"/>
</svg>
