<svg width="979" height="163" viewBox="0 0 979 163" fill="none" xmlns="http://www.w3.org/2000/svg">
<path d="M40.002 0C17.9106 9.10245e-07 0.00195312 17.9086 0.00195312 40V123C0.00195328 145.091 17.9106 163 40.002 163H40C17.9086 163 1.53033e-07 145.091 0 123V40C0 17.9086 17.9086 6.69876e-07 40 0H40.002ZM978.228 163H252.871C267.667 163 281.254 154.833 288.195 141.767L330.248 62.6123C337.19 49.5462 350.777 41.3789 365.572 41.3789H938.226C960.317 41.3789 978.226 23.0914 978.226 1C978.226 0.447844 977.778 0.000208318 977.226 0H978.228V163Z" fill="white"/>
</svg>
