<svg width="1638" height="144" viewBox="0 0 1638 144" fill="none" xmlns="http://www.w3.org/2000/svg">
<g clip-path="url(#clip0_5972_13676)">
<path d="M310.857 143C350.252 143 382.349 110.935 382.349 71.4769C382.349 32.0191 350.252 0 310.857 0C271.463 0 239.366 32.0653 239.366 71.5231C239.366 110.981 271.417 143.046 310.857 143.046V143ZM265.182 71.5231C265.182 46.296 285.688 25.7816 310.857 25.7816C336.027 25.7816 356.532 46.296 356.532 71.5231C356.532 96.7502 336.027 117.218 310.857 117.218C285.688 117.218 265.182 96.704 265.182 71.5231Z" fill="#EAECF0"/>
<path d="M228.929 3.32666H137.025V141.475H228.929V118.235H162.887V82.7968H217.383V59.6488H162.887V26.4746H228.929V3.32666Z" fill="#EAECF0"/>
<path d="M519.836 3.32666H493.973V87.8792C493.973 104.882 480.118 118.743 463.123 118.743C446.127 118.743 433.104 105.714 432.319 89.4039V3.32666H406.502V86.3544C406.502 117.634 431.857 143.046 463.123 143.046C494.389 143.046 519.097 118.327 519.789 87.6943V3.32666H519.836Z" fill="#EAECF0"/>
<path d="M637.648 118.235H575.024V3.32666H549.208V141.475H637.648V118.235Z" fill="#EAECF0"/>
<path d="M61.7005 58.8171C51.0784 56.6918 33.2979 51.7942 32.3281 41.8142C31.9124 37.5635 33.4365 33.6824 36.4846 30.633C40.9181 26.1974 48.3074 23.841 56.8974 24.0258C69.413 24.3031 79.8966 29.7551 87.9786 41.075L107.56 30.8178C95.8759 9.61034 74.8164 0 56.9436 0C34.822 0 22.6758 8.50145 16.3488 15.1548C9.46751 22.4549 5.86524 31.788 6.2347 41.4908C7.01981 63.0678 22.0755 75.2194 56.528 82.1961C65.4413 84.1367 86.2236 89.9121 86.2236 101.925C86.2236 105.529 83.9607 110.103 80.6817 113.245C73.8928 119.806 62.3009 120.822 52.8795 119.667C43.92 118.558 25.1697 112.09 17.3648 96.2882L0 111.535C8.35912 127.707 28.772 142.815 58.4215 143.046C76.1096 143.046 92.0427 137.363 102.388 127.245C109.916 119.898 114.072 110.565 114.072 100.909C114.072 79.6549 95.9683 65.1008 61.7467 58.8171H61.7005Z" fill="#EAECF0"/>
<path d="M996.306 3.32666H970.443V141.475H1058.88V118.235H996.306V3.32666Z" fill="#EAECF0"/>
<path d="M1102.9 3.32666H1077.03V141.475H1165.47V118.235H1102.9V3.32666Z" fill="#EAECF0"/>
<path d="M1209.49 82.7968H1263.98V59.6488H1209.49V26.567H1275.53V3.32666H1183.62V141.475H1275.53V118.235H1209.49V82.7968Z" fill="#EAECF0"/>
<path d="M1536 3.32666H1508.29L1471.67 66.0249L1435.04 3.32666H1407.29L1458.64 91.2058V141.475H1484.64V91.2058L1536 3.32666Z" fill="#EAECF0"/>
<path d="M818.178 62.9754H744.377V86.2158H790.422C784.279 104.235 767.238 117.218 747.194 117.218C721.978 117.218 701.519 96.704 701.519 71.5231C701.519 46.3422 722.025 25.7816 747.194 25.7816C764.421 25.7816 779.476 35.3919 787.235 49.5302L805.939 30.864C793.008 12.2439 771.487 0 747.194 0C707.8 0 675.703 32.0653 675.703 71.5231C675.703 110.981 707.754 143.046 747.194 143.046C786.635 143.046 818.686 110.981 818.686 71.5231C818.686 68.6123 818.501 65.7939 818.178 62.9754Z" fill="#EAECF0"/>
<path d="M1379.67 141.475H1407.38L1377.78 84.5062C1392.93 78.084 1403.55 63.0678 1403.55 45.6028C1403.55 22.2701 1384.66 3.3728 1361.34 3.3728H1296.96V141.521H1322.82V87.8791H1351.82L1379.67 141.521V141.475ZM1322.82 26.567H1358.75C1369.23 26.567 1377.73 35.0684 1377.73 45.5566C1377.73 56.0448 1369.23 64.5463 1358.75 64.5463H1322.82V26.567Z" fill="#EAECF0"/>
<path d="M954.649 141.475L905.741 3.32666H867.594L818.686 141.475H845.888L886.667 26.2436L927.447 141.475H954.649Z" fill="#EAECF0"/>
<path d="M1612.9 103.203H1600.3L1602.64 78.363L1582.3 92.763L1576 81.963L1598.68 71.523L1576 61.083L1582.3 50.283L1602.64 64.683L1600.3 39.843H1612.9L1610.56 64.683L1630.9 50.283L1637.2 61.083L1614.52 71.523L1637.2 81.963L1630.9 92.763L1610.56 78.363L1612.9 103.203Z" fill="#EAECF0"/>
</g>
<defs>
<clipPath id="clip0_5972_13676">
<rect width="1637.2" height="143.046" fill="white"/>
</clipPath>
</defs>
</svg>
