<svg width="223" height="265" viewBox="0 0 223 265" fill="none" xmlns="http://www.w3.org/2000/svg">
<g clip-path="url(#clip0_101_5696)">
<path d="M168.01 0C172.238 66.183 172.261 132.478 170.628 198.75C170.023 220.833 169.151 242.917 167.496 265H165.437C160.963 198.839 160.672 132.522 162.059 66.25C162.574 44.1667 163.379 22.0833 164.923 0H168.01Z" fill="black"/>
<path d="M145.28 18.4844C142.596 29.0343 138.166 51.8105 138.166 86.9695C138.166 122.129 142.618 144.905 145.28 155.455H147.249V18.4844H145.28Z" fill="black"/>
<path d="M117.159 124.364C106.354 99.9559 106.488 70.653 117.159 46.2451L118.502 46.7368C112.663 65.4227 111.343 85.405 114.162 104.739C115.168 111.176 116.6 117.547 118.502 123.85L117.159 124.341V124.364Z" fill="black"/>
<path d="M129.888 138.334C118.188 105.097 118.367 65.557 129.888 32.2979L132.103 32.9013C126.868 58.7844 125.749 85.3381 128.232 111.579C129.105 120.318 130.447 129.013 132.103 137.708L129.91 138.311L129.888 138.334Z" fill="black"/>
<path d="M193.938 178.03C193.938 142.893 189.486 120.095 186.824 109.545H184.855V246.515H186.824C189.509 235.965 193.938 213.189 193.938 178.03Z" fill="black"/>
<path d="M214.946 140.613C225.751 165.021 225.617 194.324 214.946 218.732L213.604 218.24C219.443 199.554 220.762 179.572 217.944 160.238C216.937 153.801 215.505 147.431 213.604 141.127L214.946 140.636V140.613Z" fill="black"/>
<path d="M202.217 126.666C213.917 159.903 213.738 199.443 202.217 232.702L200.002 232.098C205.237 206.215 206.355 179.662 203.872 153.421C203 144.681 201.657 135.987 200.002 127.292L202.194 126.688L202.217 126.666Z" fill="black"/>
<path d="M45.1014 256.327L43.8262 254.136C44.5197 253.824 45.8844 252.929 46.8016 251.879C48.211 250.247 48.7256 248.705 48.7256 246.47V241.91H51.2312V246.626C51.2312 247.409 51.1417 248.102 51.0074 248.772C52.2155 250.493 54.5422 252.549 56.1529 253.578L54.9672 255.746C53.446 254.785 51.522 252.997 50.1573 251.208C49.8665 251.767 49.4862 252.326 49.0611 252.907C47.8754 254.449 46.1081 255.768 45.0566 256.327H45.1014ZM58.569 246.515V241.307H61.0523V259.791H58.569V248.839H54.6093V246.492H58.569V246.515Z" fill="black"/>
<path d="M72.3947 252.081V250.605H64.6094V248.616H82.7751V250.605H75.0122V252.081H80.359V256.931H69.5759V258.361H80.7617V260.261H67.0926V255.299H77.8757V253.936H66.9808V252.103H72.4171L72.3947 252.081ZM80.5603 244.347C80.5603 246.672 78.0323 247.811 73.6699 247.811C69.3074 247.811 66.8465 246.649 66.8465 244.347C66.8465 242.045 69.3298 240.815 73.6699 240.815C78.01 240.815 80.5603 242.022 80.5603 244.347ZM69.3298 244.347C69.3298 245.375 70.6497 245.867 73.6699 245.867C76.69 245.867 78.0547 245.353 78.0547 244.347C78.0547 243.341 76.6453 242.738 73.6699 242.738C70.6944 242.738 69.3298 243.319 69.3298 244.347Z" fill="black"/>
<path d="M92.081 241.933V244.414C92.081 246.56 91.298 248.236 89.4411 249.443C88.233 250.27 86.3538 250.829 85.1234 250.963L84.7207 248.751C85.5932 248.616 86.9355 248.259 87.7632 247.812C89.1727 247.03 89.6648 246.091 89.6648 244.66V244.079H85.3695V241.911H92.0586L92.081 241.933ZM101.432 251.388V256.618H90.8058V258.317H101.924V260.284H88.3002V254.83H98.949V253.288H88.2107V251.388H101.455H101.432ZM101.455 241.285V250.293H99.0609V246.717H96.3763V250.27H93.9825V241.352H96.3763V244.571H99.0609V241.285H101.455Z" fill="black"/>
<path d="M114.833 242.245V249.979H108.322V253.756H109.956C111.343 253.756 114.654 253.622 116.667 253.041L116.935 255.232C114.743 255.835 111.32 255.969 109.799 255.969H105.884V247.99H112.416V244.346H105.66V242.245H114.788H114.833ZM121.566 241.307V259.791H119.083V249.644H115.951V247.275H119.083V241.307H121.566Z" fill="black"/>
<path d="M136.021 242.245V249.979H128.884V253.756H130.629C132.016 253.756 135.663 253.555 137.43 252.997L137.698 255.165C135.819 255.813 131.994 255.947 130.472 255.947H126.468V247.967H133.582V244.324H126.244V242.223H136.021V242.245ZM141.882 241.307V259.791H139.399V241.307H141.882Z" fill="black"/>
<path d="M89.1279 195.554C95.8841 195.554 101.365 190.078 101.365 183.328C101.365 176.578 95.8841 171.102 89.1279 171.102C82.3717 171.102 76.8906 176.578 76.8906 183.328C76.8906 190.078 82.3717 195.554 89.1279 195.554ZM81.2978 183.328C81.2978 179.014 84.8102 175.505 89.1279 175.505C93.4456 175.505 96.9579 179.014 96.9579 183.328C96.9579 187.642 93.4456 191.151 89.1279 191.151C84.8102 191.151 81.2978 187.642 81.2978 183.328Z" fill="#EE3E79"/>
<path d="M75.1022 171.66H59.375V195.286H75.1022V191.307H63.7822V185.25H73.1335V181.294H63.7822V175.616H75.1022V171.66Z" fill="black"/>
<path d="M124.901 171.66H120.471V186.122C120.471 189.027 118.1 191.397 115.192 191.397C112.283 191.397 110.046 189.161 109.912 186.367V171.66H105.482V185.853C105.482 191.195 109.823 195.554 115.169 195.554C120.516 195.554 124.744 191.33 124.879 186.077V171.66H124.901Z" fill="black"/>
<path d="M145.079 191.307H134.363V171.66H129.934V195.286H145.079V191.307Z" fill="black"/>
<path d="M46.4665 181.16C44.6544 180.802 41.5895 179.953 41.4329 178.254C41.3658 177.539 41.6119 176.868 42.1488 176.354C42.9094 175.594 44.1846 175.192 45.6388 175.237C47.7864 175.282 49.5762 176.22 50.9632 178.165L54.319 176.421C52.3055 172.778 48.7037 171.146 45.6388 171.146C41.858 171.146 39.7774 172.599 38.6812 173.739C37.4955 174.991 36.8915 176.578 36.9586 178.232C37.0928 181.92 39.6656 183.999 45.5717 185.183C47.0929 185.519 50.65 186.502 50.65 188.558C50.65 189.184 50.2697 189.944 49.7104 190.503C48.5471 191.621 46.556 191.799 44.9453 191.598C43.4016 191.419 40.2025 190.302 38.8602 187.597L35.8848 190.212C37.3165 192.984 40.8065 195.554 45.8849 195.599C48.905 195.599 51.6344 194.616 53.4017 192.895C54.6993 191.643 55.3928 190.034 55.3928 188.402C55.3928 184.759 52.3055 182.278 46.4442 181.205L46.4665 181.16Z" fill="#45B97C"/>
<path d="M54.9003 204.025H50.4707V227.651H65.6163V223.672H54.9003V204.025Z" fill="#FDB933"/>
<path d="M73.1318 204.025H68.7246V227.651H83.8478V223.672H73.1318V204.025Z" fill="black"/>
<path d="M91.3886 217.615H100.718V213.659H91.3886V208.004H102.709V204.025H86.959V227.651H102.709V223.672H91.3886V217.615Z" fill="black"/>
<path d="M147.294 204.025H142.551L136.287 214.754L130.001 204.025H125.258L134.05 219.046V227.651H138.502V219.046L147.294 204.025Z" fill="#27AAE1"/>
<path d="M24.3859 214.239H11.746V218.218H19.6431C18.5917 221.302 15.6834 223.515 12.2381 223.515C7.92043 223.515 4.40809 220.006 4.40809 215.692C4.40809 211.378 7.92043 207.869 12.2381 207.869C15.1912 207.869 17.7639 209.501 19.0839 211.937L22.283 208.741C20.0682 205.545 16.3769 203.466 12.2158 203.466C5.45956 203.466 -0.0214844 208.942 -0.0214844 215.692C-0.0214844 222.442 5.45956 227.918 12.2158 227.918C18.972 227.918 24.453 222.442 24.453 215.692C24.453 215.2 24.4307 214.709 24.3636 214.239H24.3859Z" fill="black"/>
<path d="M120.538 227.651H125.281L120.225 217.906C122.82 216.81 124.632 214.24 124.632 211.245C124.632 207.266 121.388 204.025 117.406 204.025H106.377V227.651H110.807V218.487H115.773L120.538 227.651ZM110.807 208.004H116.959C118.748 208.004 120.203 209.457 120.203 211.245C120.203 213.033 118.748 214.486 116.959 214.486H110.807V207.982V208.004Z" fill="black"/>
<path d="M47.7634 227.651L39.3741 204.025H32.864L24.4746 227.651H29.1279L36.1302 207.937L43.1101 227.651H47.7634Z" fill="black"/>
</g>
<defs>
<clipPath id="clip0_101_5696">
<rect width="223" height="265" fill="white"/>
</clipPath>
</defs>
</svg>
