<svg width="120" height="143" viewBox="0 0 120 143" fill="none" xmlns="http://www.w3.org/2000/svg">
<g clip-path="url(#clip0_6105_431)">
<path d="M90.4093 0C92.6846 35.6808 92.6966 71.4219 91.8178 107.151C91.4927 119.057 91.0232 130.962 90.1324 142.868H89.0248C86.6171 107.199 86.4606 71.446 87.207 35.717C87.4839 23.8113 87.9173 11.9057 88.748 0H90.4093Z" fill="white"/>
<path d="M78.1784 9.96545C76.7337 15.6532 74.3501 27.9324 74.3501 46.8875C74.3501 65.8425 76.7458 78.1218 78.1784 83.8095H79.2377V9.96545H78.1784Z" fill="white"/>
<path d="M63.0458 67.0475C57.2312 53.8886 57.3034 38.0907 63.0458 24.9318L63.7681 25.1969C60.6261 35.2709 59.9158 46.0439 61.4327 56.4673C61.9744 59.9378 62.7449 63.3721 63.7681 66.7703L63.0458 67.0354V67.0475Z" fill="white"/>
<path d="M69.8955 74.5789C63.5994 56.6602 63.6957 35.3432 69.8955 17.4124L71.0873 17.7378C68.2703 31.692 67.6684 46.0077 69.0047 60.1547C69.4742 64.8664 70.1965 69.5539 71.0873 74.2415L69.9076 74.5669L69.8955 74.5789Z" fill="white"/>
<path d="M104.362 95.9804C104.362 77.0373 101.967 64.7461 100.534 59.0583H99.4746V132.902H100.534C101.979 127.215 104.362 114.935 104.362 95.9804Z" fill="white"/>
<path d="M115.666 75.8081C121.481 88.967 121.409 104.765 115.666 117.924L114.944 117.659C118.086 107.585 118.796 96.8117 117.279 86.3882C116.738 82.9178 115.967 79.4834 114.944 76.0853L115.666 75.8202V75.8081Z" fill="white"/>
<path d="M108.816 68.2887C115.112 86.2074 115.016 107.524 108.816 125.455L107.625 125.13C110.442 111.176 111.043 96.8599 109.707 82.7129C109.238 78.0012 108.515 73.3137 107.625 68.6261L108.804 68.3007L108.816 68.2887Z" fill="white"/>
<path d="M24.2702 138.192L23.584 137.011C23.9572 136.843 24.6915 136.361 25.1851 135.794C25.9435 134.915 26.2204 134.083 26.2204 132.878V130.42H27.5687V132.963C27.5687 133.384 27.5206 133.758 27.4483 134.119C28.0984 135.047 29.3504 136.156 30.2172 136.71L29.5792 137.879C28.7605 137.361 27.7252 136.397 26.9909 135.433C26.8344 135.734 26.6297 136.035 26.401 136.349C25.763 137.18 24.8119 137.891 24.2461 138.192H24.2702ZM31.5174 132.902V130.095H32.8536V140.06H31.5174V134.155H29.3866V132.89H31.5174V132.902Z" fill="white"/>
<path d="M38.957 135.903V135.107H34.7676V134.035H44.5429V135.107H40.3655V135.903H43.2427V138.518H37.4401V139.289H43.4594V140.313H36.1039V137.638H41.9064V136.903H36.0437V135.915H38.969L38.957 135.903ZM43.351 131.733C43.351 132.987 41.9907 133.601 39.6432 133.601C37.2957 133.601 35.9714 132.975 35.9714 131.733C35.9714 130.492 37.3077 129.829 39.6432 129.829C41.9787 129.829 43.351 130.48 43.351 131.733ZM37.3077 131.733C37.3077 132.288 38.018 132.553 39.6432 132.553C41.2684 132.553 42.0027 132.276 42.0027 131.733C42.0027 131.191 41.2443 130.866 39.6432 130.866C38.0421 130.866 37.3077 131.179 37.3077 131.733Z" fill="white"/>
<path d="M49.551 130.432V131.769C49.551 132.926 49.1297 133.83 48.1305 134.481C47.4804 134.927 46.4691 135.228 45.807 135.3L45.5903 134.107C46.0598 134.035 46.7821 133.842 47.2276 133.601C47.986 133.179 48.2508 132.673 48.2508 131.902V131.589H45.9395V130.42H49.539L49.551 130.432ZM54.5831 135.529V138.349H48.8648V139.265H54.848V140.325H47.5165V137.385H53.2468V136.553H47.4683V135.529H54.5951H54.5831ZM54.5951 130.082V134.939H53.307V133.011H51.8624V134.927H50.5743V130.119H51.8624V131.854H53.307V130.082H54.5951Z" fill="white"/>
<path d="M61.7942 130.601V134.77H58.291V136.807H59.1698C59.9162 136.807 61.6979 136.734 62.7814 136.421L62.9258 137.602C61.746 137.927 59.9041 138 59.0855 138H56.9788V133.698H60.494V131.733H56.8584V130.601H61.7701H61.7942ZM65.4178 130.095V140.06H64.0815V134.589H62.3961V133.312H64.0815V130.095H65.4178Z" fill="white"/>
<path d="M73.1949 130.601V134.77H69.3546V136.807H70.2936C71.04 136.807 73.0023 136.698 73.9533 136.397L74.0978 137.566C73.0866 137.915 71.028 137.987 70.2094 137.987H68.0545V133.686H71.8827V131.721H67.9341V130.589H73.1949V130.601ZM76.349 130.095V140.06H75.0127V130.095H76.349Z" fill="white"/>
<path d="M47.9615 105.428C51.5972 105.428 54.5466 102.475 54.5466 98.8363C54.5466 95.1971 51.5972 92.2448 47.9615 92.2448C44.3259 92.2448 41.3765 95.1971 41.3765 98.8363C41.3765 102.475 44.3259 105.428 47.9615 105.428ZM43.7481 98.8363C43.7481 96.5106 45.6381 94.6187 47.9615 94.6187C50.285 94.6187 52.175 96.5106 52.175 98.8363C52.175 101.162 50.285 103.054 47.9615 103.054C45.6381 103.054 43.7481 101.162 43.7481 98.8363Z" fill="#EE3E79"/>
<path d="M40.4133 92.5461H31.9502V105.283H40.4133V103.138H34.3218V99.8726H39.3539V97.7397H34.3218V94.679H40.4133V92.5461Z" fill="white"/>
<path d="M67.2107 92.5461H64.827V100.343C64.827 101.909 63.551 103.186 61.9859 103.186C60.4209 103.186 59.2171 101.981 59.1449 100.475V92.5461H56.7612V100.198C56.7612 103.078 59.0967 105.428 61.9739 105.428C64.8511 105.428 67.1264 103.15 67.1986 100.318V92.5461H67.2107Z" fill="white"/>
<path d="M78.07 103.138H72.3035V92.5461H69.9199V105.283H78.07V103.138Z" fill="white"/>
<path d="M25.0043 97.6675C24.0292 97.4747 22.3799 97.0168 22.2956 96.1009C22.2595 95.7153 22.3919 95.3538 22.6808 95.0767C23.0902 94.667 23.7763 94.4501 24.5589 94.4742C25.7146 94.4983 26.6776 95.0044 27.424 96.0527L29.2298 95.1128C28.1463 93.1486 26.2081 92.269 24.5589 92.269C22.5243 92.269 21.4048 93.0522 20.8149 93.6668C20.1768 94.3416 19.8518 95.1972 19.8879 96.0889C19.9601 98.0772 21.3446 99.1979 24.5227 99.8365C25.3414 100.017 27.2555 100.547 27.2555 101.656C27.2555 101.994 27.0508 102.403 26.7499 102.704C26.1239 103.307 25.0524 103.403 24.1857 103.295C23.355 103.199 21.6335 102.596 20.9112 101.138L19.3101 102.548C20.0805 104.042 21.9585 105.428 24.6913 105.452C26.3165 105.452 27.7852 104.922 28.7362 103.994C29.4345 103.319 29.8077 102.451 29.8077 101.572C29.8077 99.6076 28.1463 98.27 24.9922 97.6916L25.0043 97.6675Z" fill="#45B97C"/>
<path d="M29.5428 109.995H27.1592V122.732H35.3093V120.587H29.5428V109.995Z" fill="#FDB933"/>
<path d="M39.354 109.995H36.9824V122.732H45.1205V120.587H39.354V109.995Z" fill="white"/>
<path d="M49.1776 117.321H54.1976V115.189H49.1776V112.14H55.2691V109.995H46.7939V122.732H55.2691V120.587H49.1776V117.321Z" fill="white"/>
<path d="M79.2617 109.995H76.7096L73.3388 115.779L69.956 109.995H67.4038L72.1349 118.093V122.732H74.5306V118.093L79.2617 109.995Z" fill="#27AAE1"/>
<path d="M13.1223 115.502H6.32054V117.647H10.5701C10.0043 119.31 8.43932 120.503 6.58539 120.503C4.26196 120.503 2.37191 118.611 2.37191 116.285C2.37191 113.959 4.26196 112.067 6.58539 112.067C8.17448 112.067 9.55891 112.947 10.2692 114.261L11.9907 112.537C10.7989 110.814 8.81252 109.694 6.57335 109.694C2.93772 109.694 -0.0117188 112.646 -0.0117188 116.285C-0.0117188 119.924 2.93772 122.877 6.57335 122.877C10.209 122.877 13.1584 119.924 13.1584 116.285C13.1584 116.02 13.1464 115.755 13.1103 115.502H13.1223Z" fill="white"/>
<path d="M64.8636 122.732H67.4157L64.695 117.478C66.0915 116.888 67.0666 115.502 67.0666 113.887C67.0666 111.742 65.321 109.995 63.1782 109.995H57.2432V122.732H59.6268V117.791H62.2993L64.8636 122.732ZM59.6268 112.14H62.9374C63.9005 112.14 64.683 112.923 64.683 113.887C64.683 114.851 63.9005 115.634 62.9374 115.634H59.6268V112.128V112.14Z" fill="white"/>
<path d="M25.702 122.732L21.1876 109.995H17.6844L13.1699 122.732H15.6739L19.442 112.104L23.198 122.732H25.702Z" fill="white"/>
</g>
<defs>
<clipPath id="clip0_6105_431">
<rect width="120" height="142.868" fill="white"/>
</clipPath>
</defs>
</svg>
