<svg width="149" height="60" viewBox="0 0 149 60" fill="none" xmlns="http://www.w3.org/2000/svg">
<path d="M13.9537 10.1074C13.8265 8.54998 12.8094 7.65999 10.7434 7.65999C8.7409 7.65999 7.85092 8.42284 7.81914 9.50353C7.78735 10.6796 8.86804 11.3471 10.9976 11.7921L12.9048 12.237C17.8632 13.286 20.0564 15.7016 20.0882 19.2298C20.0564 23.7433 16.5918 26.2861 10.7752 26.2861C4.83134 26.2861 0.985338 23.6797 0.921768 18.0219H6.70666C6.80201 20.1515 8.29591 21.2958 10.6798 21.2958C12.7458 21.2958 13.8583 20.4376 13.8901 19.2298C13.8583 18.1173 12.9365 17.4816 10.3619 16.9095L8.04163 16.4009C4.00492 15.5109 1.52569 13.5085 1.52569 9.94852C1.4939 5.59396 5.3399 2.66973 10.7434 2.66973C16.274 2.66973 19.7385 5.62575 19.7703 10.1074H13.9537ZM22.5674 26V2.98758H39.0003V7.88249H28.6066V12.0463H38.1421V16.9412H28.6066V21.1051H38.9685V26H22.5674ZM64.3013 14.4938C64.3013 22.154 59.4064 26.3179 53.1765 26.3179C46.883 26.3179 42.0199 22.1222 42.0199 14.4938C42.0199 6.83358 46.883 2.66973 53.1765 2.66973C59.4064 2.66973 64.3013 6.83358 64.3013 14.4938ZM58.0714 14.4938C58.0714 10.2664 56.3232 7.94606 53.1765 7.94606C49.998 7.94606 48.2498 10.2664 48.2498 14.4938C48.2498 18.7212 49.998 21.0415 53.1765 21.0415C56.3232 21.0415 58.0714 18.7212 58.0714 14.4938ZM80.9567 2.98758H86.9958V17.7677C86.9958 22.9804 83.0227 26.2861 77.1107 26.2861C71.1986 26.2861 67.2573 22.9804 67.2573 17.7677V2.98758H73.2965V17.2273C73.2965 19.4523 74.8857 21.0415 77.1107 21.0415C79.3674 21.0415 80.9567 19.4523 80.9567 17.2273V2.98758ZM90.1108 26V2.98758H96.1499V21.1051H105.527V26H90.1108ZM16.5283 35.5524C16.115 33.8996 14.7483 32.9461 12.714 32.9461C9.50375 32.9461 7.62843 35.3617 7.62843 39.462C7.62843 43.5941 9.37661 46.0415 12.6823 46.0415C15.5588 46.0415 17.0209 44.6907 17.0686 42.5452H12.8094V38.2224H22.9171V41.3691C22.9171 47.6308 18.6261 51.3179 12.6187 51.3179C5.94381 51.3179 1.39854 46.8044 1.39854 39.5256C1.39854 31.9607 6.38881 27.6697 12.5869 27.6697C17.9904 27.6697 22.1542 30.9436 22.6628 35.5524H16.5283ZM30.8951 51H24.3474L32.0076 27.9876H40.2399L47.8684 51H41.3524L39.9857 46.4865H32.2619L30.8951 51ZM33.6604 41.9095H38.5871L36.2032 34.1857H36.0125L33.6604 41.9095ZM50.1569 51V27.9876H56.1961V46.1051H65.5727V51H50.1569ZM68.1791 51V27.9876H74.2182V46.1051H83.5948V51H68.1791ZM86.2012 51V27.9876H102.634V32.8825H92.2404V37.0463H101.776V41.9412H92.2404V46.1051H102.602V51H86.2012ZM105.813 51V27.9876H115.602C120.752 27.9876 124.121 30.9118 124.121 35.7749C124.121 38.9534 122.659 41.2102 120.179 42.3862L124.884 51H118.304L114.236 43.3398H111.852V51H105.813ZM111.852 38.6038H114.204C116.492 38.6038 117.796 37.7774 117.796 35.7749C117.796 33.7407 116.492 32.8189 114.204 32.8189H111.852V38.6038ZM124.788 27.9876H131.559L136.136 37.396H136.326L140.935 27.9876H147.705L139.251 43.6259V51H133.243V43.6259L124.788 27.9876Z" fill="white"/>
<rect x="109.5" y="20.6046" width="38.25" height="4.87018" fill="white"/>
<rect x="1.5" y="54.6959" width="146.25" height="4.87018" fill="white"/>
</svg>
