<svg width="160" height="62" viewBox="0 0 160 62" fill="none" xmlns="http://www.w3.org/2000/svg">
<g clip-path="url(#clip0_90_2238)">
<path d="M58.9054 26.6831C66.235 26.6831 72.1985 20.6979 72.1985 13.3416C72.1985 5.98526 66.235 0 58.9054 0C51.5758 0 45.6123 5.98526 45.6123 13.3416C45.6123 20.6979 51.5758 26.6831 58.9054 26.6831ZM50.4073 13.3416C50.4073 8.63925 54.2202 4.81243 58.9054 4.81243C63.5906 4.81243 67.4036 8.63925 67.4036 13.3416C67.4036 18.0439 63.5906 21.8707 58.9054 21.8707C54.2202 21.8707 50.4073 18.0439 50.4073 13.3416Z" fill="#EE3E79"/>
<path d="M43.6642 0.62207H26.5801V26.3967H43.6642V22.0578H31.3805V15.4503H41.519V11.1279H31.3805V4.93894H43.6642V0.62207Z" fill="#111111"/>
<path d="M97.7743 0.62207H92.9684V16.3919C92.9684 19.569 90.3954 22.1514 87.2298 22.1514C84.0643 22.1514 81.6449 19.7231 81.4967 16.6782V0.62207H76.6963V16.1111C76.6908 21.9421 81.4144 26.6885 87.2243 26.6885C93.0342 26.6885 97.6317 22.0743 97.7634 16.3588L97.7743 0.627577V0.62207Z" fill="#111111"/>
<path d="M119.681 22.0578H108.045V0.62207H103.239V26.3967H119.681V22.0578Z" fill="#111111"/>
<path d="M12.5684 10.9739C10.5933 10.5774 7.27964 9.66341 7.10409 7.80231C7.02728 7.01492 7.30708 6.2881 7.87764 5.72096C8.70606 4.88952 10.0831 4.44902 11.6741 4.49307C14.0057 4.54263 15.9534 5.56128 17.4566 7.67567L21.0994 5.76501C18.9214 1.79503 15.0097 0 11.6796 0C7.57041 0 5.31009 1.58028 4.13604 2.8302C2.85775 4.19023 2.18844 5.9357 2.25976 7.74174C2.40789 11.7668 5.20585 14.0409 11.6138 15.3348C13.2706 15.6982 17.1329 16.7774 17.1329 19.0185C17.1329 19.6957 16.7104 20.5382 16.1015 21.1274C14.8396 22.3552 12.6781 22.5424 10.9335 22.3222C9.26565 22.1185 5.77642 20.9071 4.32806 17.9558L1.09668 20.8025C2.64928 23.8199 6.44574 26.6446 11.9594 26.6831C15.2511 26.6831 18.2137 25.6204 20.1338 23.7373C21.5328 22.3663 22.3064 20.6208 22.3064 18.8258C22.3064 14.8558 18.9433 12.1412 12.5738 10.9739H12.5684Z" fill="#45B97C"/>
<path d="M59.6243 35.9336H54.8184V61.7137H71.266V57.3748H59.6243V35.9336Z" fill="#FDB933"/>
<path d="M79.4456 35.9336H74.6396V61.7137H91.0873V57.3748H79.4456V35.9336Z" fill="#111111"/>
<path d="M99.2727 50.7618H109.406V46.445H99.2727V40.278H111.551V35.9336H94.4668V61.7137H111.551V57.3748H99.2727V50.7618Z" fill="#111111"/>
<path d="M160 35.9336H154.843L148.034 47.6288L141.221 35.9336H136.063L145.615 52.3311V61.7137H150.448V52.3311L160 35.9336Z" fill="#27AAE1"/>
<path d="M26.4927 47.0673H12.7662V51.4062H21.3357C20.1945 54.765 17.0235 57.1877 13.2984 57.1877C8.61313 57.1877 4.80021 53.3609 4.80021 48.6586C4.80021 43.9563 8.61313 40.1295 13.2984 40.1295C16.5023 40.1295 19.3003 41.919 20.7486 44.5565L24.2324 41.071C21.8294 37.5966 17.83 35.3115 13.3038 35.3115C5.97426 35.3115 0.0107422 41.2968 0.0107422 48.6531C0.0107422 56.0094 5.97426 61.9946 13.3038 61.9946C20.6334 61.9946 26.5969 56.0094 26.5969 48.6531C26.5969 48.1135 26.564 47.5794 26.5037 47.0618L26.4927 47.0673Z" fill="#111111"/>
<path d="M130.928 61.7137H136.08L130.577 51.0812C133.397 49.8863 135.372 47.0837 135.372 43.8185C135.372 39.4631 131.855 35.9336 127.516 35.9336H115.545V61.7082H120.351V51.6979H125.744L130.923 61.7082L130.928 61.7137ZM120.356 40.278H127.039C128.986 40.278 130.566 41.8638 130.566 43.8185C130.566 45.7732 128.986 47.359 127.039 47.359H120.356V40.2725V40.278Z" fill="#111111"/>
<path d="M51.8778 61.7137L42.7816 35.9336H35.6879L26.5918 61.7137H31.6446L39.232 40.2119L46.8195 61.7137H51.8778Z" fill="#111111"/>
</g>
<defs>
<clipPath id="clip0_90_2238">
<rect width="160" height="62" fill="white"/>
</clipPath>
</defs>
</svg>
