<svg width="105" height="28" viewBox="0 0 105 28" fill="none" xmlns="http://www.w3.org/2000/svg">
<g clip-path="url(#clip0_5646_5979)">
<path d="M14.8711 4.20143C14.9222 4.28096 14.9904 4.34912 14.996 4.42864C15.0699 4.66153 15.2857 4.80354 15.3141 5.03643C15.3255 5.11596 15.4277 5.15004 15.4789 5.18412C15.5357 5.25796 15.4959 5.34317 15.6095 5.45109C15.6606 5.48518 15.6209 5.57038 15.6322 5.6499C15.6834 5.68399 15.7402 5.71807 15.7913 5.75215C16.2741 6.50763 16.3195 7.38239 15.7629 8.19467C15.672 8.28555 15.5868 8.41052 15.5527 8.53549C15.5073 8.58093 15.4107 8.62637 15.3653 8.67181C15.3766 8.75134 15.4277 8.78542 15.4845 8.85926C15.2403 8.92175 15.2119 9.12624 15.0301 9.26256C14.979 9.26256 14.8824 9.27392 14.8313 9.2796C14.695 9.41593 14.553 9.46705 14.411 9.55794C14.3655 9.60338 14.3769 9.72266 14.3826 9.76243C14.1497 9.9442 13.8145 10.0578 13.4624 10.0464C13.4169 10.0464 13.3772 10.1771 13.3317 10.1771C13.0818 10.1998 12.7864 10.1884 12.5365 10.2112C12.4342 10.1828 12.3774 10.1089 12.2695 10.0748C12.1729 10.0862 12.0707 10.0919 11.9684 10.0635C11.8094 9.95556 11.6049 9.93852 11.4459 9.87035C11.3436 9.84195 11.1562 9.93852 11.0482 9.87035C10.7131 9.58066 10.3836 9.29096 10.2019 8.98991C10.0826 8.80246 9.87242 8.73998 9.80426 8.54685C9.7929 8.46732 9.83266 8.34236 9.73042 8.31396C9.52593 8.25147 9.61113 8.12651 9.59977 8.00722C9.53729 7.89361 9.52593 7.81409 9.418 7.70617C9.35552 7.59256 9.43504 7.42215 9.37256 7.26878C9.37256 7.22902 9.41232 7.18358 9.40664 7.14382C9.3328 6.91093 9.45208 6.66099 9.42936 6.46218C9.418 6.3429 9.4464 6.17817 9.48616 6.05888C9.61113 5.80895 9.72474 5.51358 9.94627 5.25228C9.94627 5.21252 9.93491 5.133 9.92923 5.09324C9.97467 5.04779 10.0258 5.04211 10.0656 4.99667C10.1451 4.79218 10.2246 4.62177 10.3552 4.45136C10.5313 4.23551 10.8097 4.04806 11.0369 3.82653C11.1732 3.69589 11.3607 3.59364 11.4856 3.38347C11.5311 3.33803 11.6901 3.40619 11.7356 3.36075C11.8719 3.2301 12.0707 3.24714 12.2127 3.15626C12.3547 3.06538 12.3263 3.26419 12.4683 3.21306C12.5649 3.2017 12.6103 3.16194 12.7069 3.11082C12.8489 3.0597 13.0136 3.16194 13.167 3.18466C13.3147 3.1733 13.468 3.19602 13.6271 3.30395C13.8429 3.44595 14.3371 3.39483 14.4166 3.67317C14.5359 3.86061 14.7518 4.00262 14.8711 4.19007V4.20143Z" fill="#C2002F"/>
<path d="M23.2327 7.33701C23.2327 7.21204 23.2327 7.1382 23.1816 7.00755C23.1702 6.88259 23.2668 6.74626 23.2213 6.57585C23.1929 6.53041 23.1304 6.47929 23.1361 6.43952C23.2213 6.17823 23.227 5.93966 23.2043 5.66133C23.1816 5.57612 23.1532 5.53068 23.1248 5.48524C23.1304 5.44548 23.1475 5.37163 23.1588 5.29211C23.1645 5.05354 23.0907 4.87745 23.0168 4.6616C22.9941 4.57639 22.9316 4.52527 22.9203 4.4003C22.8919 4.35486 22.8294 4.29806 22.8351 4.2583C22.8975 3.9118 22.7328 3.63915 22.6817 3.30969C22.6022 2.93479 22.25 2.69622 22.1364 2.31564C22.1421 2.27588 22.2614 2.29292 22.2954 2.2986C22.5738 2.55989 22.8862 2.86663 22.96 3.24153C23.0112 3.37217 22.9884 3.48578 23.0452 3.57666C23.2838 3.86636 23.3236 4.23558 23.369 4.60479C23.3633 4.64456 23.4372 4.62183 23.4656 4.66728C23.4599 4.70704 23.4429 4.78088 23.4713 4.82632C23.653 5.02513 23.5394 5.24099 23.5792 5.44548C23.6019 5.53068 23.6246 5.57612 23.653 5.62156C23.6473 5.66133 23.5565 5.76357 23.5451 5.79765C23.6928 5.99078 23.7553 6.24071 23.7155 6.47361C23.8859 6.55313 23.8064 6.77466 23.8462 6.93939C23.8746 6.98483 23.9086 6.99051 23.9427 7.00187C23.9882 6.93371 24.0393 6.86555 24.0563 6.78602C24.079 6.47361 24.0904 6.19527 24.0336 5.90558C23.9882 5.77493 23.9711 5.64997 24.062 5.5534C23.9938 5.53636 23.9711 5.45116 23.9427 5.40571C23.8178 4.90017 23.7666 4.33214 23.6133 3.81523C23.6133 3.81523 23.653 3.78683 23.6644 3.74707C23.6133 3.29265 23.2668 2.86663 23.102 2.41221C23.0736 2.33268 22.943 2.23044 22.8805 2.14523C22.8805 2.14523 22.8805 2.10547 22.8919 2.06571C23.068 2.08843 23.2043 2.25884 23.2952 2.38948C23.4826 2.65078 23.6928 2.94047 23.7496 3.23585C23.8462 3.49714 23.9938 3.76979 24.0506 4.0254C24.0904 4.19581 24.2097 4.30374 24.2949 4.44575C24.3403 4.57639 24.3176 4.69 24.329 4.81496C24.3801 5.11034 24.4653 5.38867 24.5221 5.68405C24.5903 5.8999 24.6244 6.14415 24.5505 6.32592C24.4539 6.66106 24.6755 7.03027 24.7664 7.33133C24.8175 7.46197 24.755 7.60966 24.6982 7.71759C24.6925 7.75735 24.755 7.80847 24.7436 7.84823C24.6812 7.99592 24.7323 8.12657 24.7039 8.27994C24.6641 8.30834 24.755 8.41058 24.7039 8.47875C24.6641 8.51283 24.63 8.50147 24.5846 8.53555C24.5278 8.64347 24.5789 8.77412 24.5562 8.88773C24.4426 9.10358 24.4994 9.39327 24.2892 9.54664C24.2097 9.56936 24.204 9.60912 24.1643 9.63752C24.1983 9.6432 24.2267 9.68865 24.2551 9.73977C24.2154 9.76817 24.1756 9.76249 24.1359 9.79089C24.1245 9.86473 24.2722 9.9613 24.3006 10.0067C24.2438 10.3135 24.0166 10.5804 24.0222 10.944C24.0052 11.0178 23.9882 11.1371 23.9711 11.211C23.903 11.3927 23.7666 11.5234 23.6985 11.7108C23.6871 11.7847 23.5394 11.796 23.5224 11.8699C23.4315 11.9664 23.4372 12.1312 23.3747 12.2789C23.3236 12.347 23.2213 12.3243 23.1361 12.3868C23.0396 12.5231 23.0509 12.6481 22.9884 12.7901C22.8805 12.9662 22.7555 13.1593 22.6533 13.3354C22.534 13.591 22.3352 13.8296 22.1193 14.0227C22.0853 14.017 22.0057 14.0397 21.966 14.0681C21.8524 14.284 21.7274 14.443 21.4888 14.551C21.4548 14.5453 21.4036 14.71 21.3582 14.7384C21.1935 14.8577 21.1026 14.9997 20.9038 15.1133C20.8299 15.136 20.7902 15.1644 20.705 15.0281C20.4437 15.4882 20.0972 15.8461 19.7223 16.1642C19.5235 16.2778 19.3247 16.2664 19.194 16.3971C18.7623 16.8174 18.0807 17.2661 18.0068 17.3286C17.9727 17.3229 17.8421 17.5161 17.8421 17.5161C17.7058 17.5274 17.7853 17.5388 17.6546 17.5161C17.6546 17.5161 17.649 17.7319 17.4729 17.766C17.1037 17.8398 17.0071 18.2659 16.9787 18.442C16.9617 18.5328 16.9049 18.4704 16.8594 18.5044C16.8196 18.5385 16.848 18.5953 16.8026 18.6294C16.6436 18.726 16.5016 18.9248 16.3709 19.0782C16.3311 19.1122 16.3027 19.0611 16.2573 19.0952C16.2175 19.1293 16.0187 19.3735 15.9506 19.5894C15.7802 19.9643 15.5984 20.2994 15.3655 20.5607C15.3087 20.6232 15.4961 20.8731 15.4848 20.9583C15.4337 21.0776 15.3257 21.0946 15.2746 21.2139C15.2292 21.5036 15.2121 21.8331 15.161 22.1455C15.0758 22.4466 15.1837 22.6624 15.2235 22.9351C15.2689 23.1623 15.2121 23.4576 15.2235 23.6792C15.2405 23.8553 15.3598 24.0541 15.3428 24.2245C15.3485 24.4915 15.286 24.4574 15.3428 24.6789C15.3371 24.8096 15.2917 24.9402 15.3201 25.0254C15.3087 25.2015 15.2803 25.3094 15.2746 25.4798C15.2348 25.5196 15.161 25.6048 15.161 25.6446C15.1326 26.0819 14.8486 26.4625 14.5532 26.7522C14.3658 26.8715 14.2067 27.0533 13.9965 27.0362C13.8886 27.0305 13.5364 27.2521 13.4172 27.2805C13.1047 27.3657 12.8548 27.3714 12.5538 27.3259C12.2243 27.235 11.9573 27.1555 11.7301 26.8147C11.5938 26.6613 11.3609 26.7181 11.2757 26.4852C11.2473 26.3944 11.0598 26.3432 11.0258 26.2978C10.8497 26.1444 10.7588 25.9513 10.6281 25.7582C10.5429 25.5253 10.6054 25.3662 10.4975 25.1447C10.3896 25.0084 10.3441 24.9118 10.2362 24.7698C10.0942 24.588 10.2703 24.3267 10.1624 24.145C10.0885 24.0938 10.0147 24.003 9.98059 23.9121C9.91243 23.736 9.92947 23.4747 9.82154 23.2872C9.76474 23.06 9.79882 22.2364 9.84426 22.0149C9.84994 21.9694 9.72498 21.9069 9.73066 21.8615C9.7477 21.5434 9.8613 21.231 9.8329 20.9015C9.86698 20.7254 9.84994 20.5834 10.009 20.4301C10.009 20.4301 9.93515 20.3676 9.94083 20.3221C10.0317 20.0665 10.0317 19.8677 10.0828 19.6007C10.0885 19.5553 10.1851 19.5269 10.1908 19.4871C10.1396 19.294 10.134 18.8964 10.168 18.7203C10.1851 18.6294 10.4123 18.4988 10.4691 18.4192C10.4748 18.3738 10.435 18.2602 10.5202 18.1068C10.5429 18.0671 10.5997 18.0784 10.6452 18.0443C10.6509 17.9989 10.6225 17.9478 10.6338 17.9023C10.6565 17.7717 10.8781 17.6751 10.8951 17.5842C10.986 17.2832 11.1337 17.1582 11.2927 16.914C11.3495 16.806 11.3723 16.6924 11.4631 16.5902C11.5029 16.5618 11.5256 16.5902 11.5313 16.5504C11.537 16.5107 11.5199 16.4255 11.5256 16.3914C11.6165 16.2891 11.7358 16.1982 11.7585 16.0846C11.821 15.937 11.8721 15.8347 11.963 15.7325C12.1277 15.6075 12.2925 15.4882 12.3947 15.3121C12.4856 15.2099 12.5878 15.2326 12.673 15.136C12.8037 15.0054 12.8378 14.8123 12.9343 14.6759C13.1615 14.409 13.4058 14.2215 13.6501 14.0397C13.8545 13.8864 14.1158 13.8239 14.3146 13.7103C14.5191 13.5569 14.6441 13.2672 14.8429 13.1536C14.9622 13.0627 15.1099 13.0514 15.2348 12.9605C15.3598 12.8696 15.4621 12.6935 15.6438 12.6538C16.0528 12.5458 15.7574 12.6594 16.1437 12.5061C16.3823 12.3584 16.2857 12.3186 16.5243 12.1766C16.9219 11.9437 17.1264 11.8017 17.1605 11.8074C17.2002 11.779 17.24 11.7449 17.257 11.6711C17.3536 11.5347 17.8591 11.1769 17.933 11.1542C18.0068 11.1314 18.0977 11.228 18.1829 11.1314C18.2284 11.0633 18.1375 11.0008 18.1829 10.9326C18.3136 10.802 18.4385 10.6259 18.5635 10.535C18.6033 10.5066 18.7055 10.5634 18.7793 10.5407C18.8191 10.5123 18.8361 10.4328 18.8759 10.4044C18.927 10.3362 18.8361 10.234 18.8816 10.1658C18.9384 10.0579 18.9952 9.94994 19.069 9.92722C19.1883 9.87609 19.3474 9.79089 19.3303 9.70569C19.3587 9.55232 19.4212 9.40463 19.5803 9.31943C19.5859 9.27966 19.5973 9.2399 19.603 9.20582C19.6939 9.10358 19.7791 9.04677 19.87 8.94453C19.9665 8.8082 19.9268 8.63779 19.9836 8.52987C20.1653 8.33106 20.3414 8.17201 20.3869 7.89936C20.3755 7.77439 20.296 7.5983 20.3528 7.49038C20.3982 7.42221 20.5516 7.37677 20.5686 7.30293C20.597 7.14956 20.5175 6.97347 20.5118 6.81442C20.5346 6.70082 20.6595 6.60425 20.6425 6.48497C20.6311 6.16119 20.6482 5.84878 20.6027 5.51932C20.7106 5.50228 20.7277 5.42843 20.739 5.34891C20.7106 5.10466 20.5686 4.87745 20.5061 4.62183C20.5005 4.46279 20.6311 4.33214 20.6254 4.17309C20.6084 4.04813 20.4948 3.90612 20.3641 3.79819C20.2449 3.65051 20.3244 3.42898 20.2789 3.26425C20.2449 3.05976 20.0915 2.90071 20.0631 2.65646C20.0517 2.53149 19.904 2.54285 19.8529 2.41221C19.8132 2.2418 19.7677 2.07707 19.7677 1.87258C19.745 1.78737 19.6371 1.80442 19.5746 1.75329C19.4326 1.5204 19.4837 1.05462 19.177 0.946693C19.2054 0.793325 19.0634 0.759244 19.0179 0.634277C19.1997 0.634277 19.3701 0.708121 19.4723 0.935332C19.5007 0.980774 19.603 1.0035 19.6371 1.01486C19.728 1.11142 19.7223 1.34999 19.8188 1.41248C19.9438 1.5204 20.1313 1.48064 20.1824 1.61129C20.2505 1.82714 20.4153 1.94074 20.4891 2.11683C20.4834 2.15659 20.5005 2.2418 20.5289 2.28724C20.6538 2.39516 20.6709 2.51445 20.7561 2.6167C20.9663 2.86095 21.1764 3.11088 21.0799 3.44602C21.0174 3.5937 21.2048 3.55394 21.2616 3.64483C21.4036 3.87772 21.3468 4.18445 21.5286 4.38326C21.4945 4.7752 21.682 5.13306 21.8013 5.47956C21.5968 5.79197 21.7104 6.34296 21.8694 6.66106C21.8694 6.66106 21.983 6.64401 21.9887 6.60993C22.0228 6.42248 22.3693 6.35432 22.3125 6.26344C22.2443 6.04758 22.1364 5.59884 22.1364 5.40003C22.1591 5.08194 22.1705 4.80928 22.1193 4.47983C22.0909 4.43439 22.0625 4.38894 22.0341 4.3435C21.9944 4.17309 21.9489 4.00268 21.983 3.81523C21.9603 3.73003 21.8978 3.67891 21.8751 3.5937C21.8808 3.55394 21.8978 3.4801 21.9035 3.44034C21.983 3.41762 22.0796 3.4801 22.1478 3.49714C22.2102 3.54826 22.1534 3.65619 22.1818 3.70163C22.2954 3.8834 22.4602 3.96292 22.4942 4.16741C22.4886 4.20717 22.4715 4.28102 22.4658 4.32078C22.4942 4.56503 22.6419 4.75816 22.676 4.96265C22.6931 5.08194 22.5851 5.25803 22.6363 5.39435C22.7953 5.70677 22.801 6.07031 22.7783 6.42248C22.7499 6.57585 22.943 6.70082 22.8919 6.80306C22.8351 6.91099 22.9089 6.92803 22.8521 7.03595C22.8464 7.07572 22.7669 7.09844 22.7612 7.1382C22.8635 7.35973 22.7101 7.69487 22.6703 7.888C22.6647 7.92776 22.7896 7.96752 22.818 7.82551C22.8351 7.74031 22.9771 7.74031 23.0566 7.71759C23.1418 7.6551 23.2043 7.50742 23.1986 7.34837L23.2327 7.33701ZM23.9825 8.10385C23.9882 7.91072 24.079 7.76871 24.045 7.55854C23.9768 7.34269 23.8178 7.55854 23.7041 7.5699C23.7666 7.82551 23.6644 7.99592 23.5849 8.22313C23.5394 8.2913 23.4997 8.48443 23.6133 8.46738C23.7894 8.50715 23.9768 8.33674 23.9825 8.10385ZM23.6871 9.1547C23.7326 9.09222 23.7098 8.96725 23.6473 8.91613C23.5508 8.85364 23.4258 8.95021 23.369 9.05245C23.3122 9.16038 23.3577 9.33079 23.5053 9.31943C23.5394 9.32511 23.6417 9.22286 23.6928 9.1547H23.6871Z" fill="#0081C8"/>
<path d="M21.6305 2.61106C21.818 2.75306 21.8918 2.98596 22.0395 3.17909L22.0225 3.25861C21.7669 3.48014 21.5397 3.11092 21.4715 2.89507C21.3693 2.67354 21.2613 2.45201 21.0739 2.28728C21.0796 2.24752 21.0909 2.21344 21.0966 2.17368C21.0057 2.07143 20.8864 1.92942 21.0057 1.87262C21.0568 1.80446 21.142 1.94078 21.2386 2.00327C21.3863 2.1964 21.4147 2.44065 21.6362 2.61106H21.6305Z" fill="#0081C8"/>
<path d="M22.6869 1.62837C22.6869 1.66814 22.6244 1.7363 22.6187 1.77038C22.4994 1.65678 22.3744 1.54317 22.2722 1.35572C22.2381 1.34436 22.17 1.32732 22.1416 1.28188C22.1075 1.27052 22.1132 1.23643 22.1245 1.19667C22.2381 1.18531 22.3233 1.28756 22.4199 1.35572C22.454 1.36708 22.4994 1.33868 22.5335 1.34436C22.6301 1.40684 22.6812 1.50341 22.6925 1.62837H22.6869Z" fill="#0081C8"/>
<path d="M6.90712 8.6833C6.9412 8.7117 6.99232 8.75714 7.01504 8.79122C7.07185 8.83099 7.12865 8.83099 7.19113 8.80826C7.24793 8.80826 7.29906 8.96163 7.36154 8.96731C7.44674 9.00707 7.49787 9.15476 7.58307 9.22861C7.63987 9.26269 7.69668 9.31949 7.75348 9.35357C7.833 9.45582 7.88413 9.55806 7.96933 9.62622C8.02045 9.69439 8.11134 9.67167 8.17382 9.67167C8.28743 9.71143 8.33287 9.87616 8.41239 9.9784C8.44079 9.9784 8.49192 10.0806 8.49192 10.1147C8.54872 10.1488 8.59984 10.217 8.68505 10.2567C8.70777 10.2908 8.70777 10.3533 8.73049 10.3874C8.94066 10.7282 9.21899 10.9441 9.39508 11.3076C9.39508 11.3076 9.4178 11.3758 9.4178 11.4042C9.63365 11.6143 9.73022 11.9154 9.91767 12.154C9.96879 12.2562 10.0142 12.4209 10.0654 12.5516C10.1222 12.6197 10.1733 12.6595 10.2301 12.7277C10.3096 12.864 10.3834 13.0287 10.4005 13.1934C10.4005 13.2559 10.355 13.4491 10.2414 13.3411C10.1051 13.1991 10.1165 13.0117 9.98015 12.9037C9.98015 12.8697 9.94607 12.7901 9.91767 12.7561C9.86086 12.6879 9.7643 12.6936 9.74158 12.597C9.74726 12.5004 9.63933 12.4209 9.58821 12.3584C9.45188 12.1596 9.24739 12.0858 9.08267 11.887C9.05426 11.887 9.02018 11.887 8.99178 11.9154C8.96338 11.9779 8.87249 12.0687 8.95202 12.171C9.06562 12.2392 9.12243 12.3698 9.26443 12.4436C9.34964 12.5118 9.37236 12.7049 9.42348 12.8697C9.48029 12.9378 9.53709 13.0003 9.62229 13.0401C9.7075 13.1082 9.67341 13.2105 9.75294 13.3127C9.75294 13.3468 9.71886 13.3752 9.71886 13.4036C9.76998 13.5059 9.88927 13.4831 9.96879 13.5854C10.0313 13.5286 10.1165 13.574 10.1676 13.6649C10.071 13.7558 10.0994 13.8183 10.0597 13.9148C9.96311 14.0682 10.1846 14.2159 10.3266 14.2897C10.4175 14.2954 10.4005 14.4545 10.4857 14.5283C10.5368 14.6306 10.6845 14.6419 10.7583 14.7782C10.7811 14.8464 10.7243 14.8691 10.6902 14.9316C10.6845 15.0282 10.7981 15.0679 10.8549 15.1077C10.9117 15.1475 10.9344 15.2099 10.9572 15.2781C10.8663 15.3008 10.6959 15.1815 10.605 15.1759C10.5482 15.1531 10.4459 15.0282 10.3323 14.9998C10.2926 14.9884 10.2642 15.085 10.2244 15.0736C10.1733 15.0623 10.1165 15.0509 10.0597 15.0395C9.99719 15.0282 9.8495 14.8634 9.78702 14.8578C9.71318 14.8464 9.62229 14.977 9.55413 14.9657C9.29284 14.9202 9.28148 14.9032 9.19627 14.8691C9.09971 14.8294 9.00314 14.7839 8.91794 14.7328C8.86113 14.7044 8.87817 14.6249 8.82137 14.5908C8.77025 14.5567 8.65096 14.5567 8.59984 14.5226C8.38967 14.392 8.19086 14.1023 8.00909 14.0057C7.88981 13.9432 7.79324 13.8808 7.65691 13.8183C7.59443 13.7785 7.54331 13.6876 7.46379 13.6592C7.21385 13.574 7.01504 13.4207 6.73671 13.3411C6.20276 13.1878 5.7597 13.4945 5.32232 13.7217C5.2996 13.7217 5.25416 13.7217 5.23143 13.7331C5.12919 13.8183 5.01558 13.8637 4.91334 13.9319C4.77701 14.0398 4.58956 14.0682 4.44188 14.1534C4.39643 14.1818 4.39075 14.267 4.34531 14.2954C4.27715 14.3352 4.1465 14.3465 4.07834 14.3863C4.01585 14.4261 4.01017 14.4999 3.94769 14.551C3.82272 14.6533 3.70344 14.7328 3.53303 14.8123C3.43647 14.8634 2.63555 14.9998 2.5049 14.9998C2.30041 14.9998 2.15272 15.1702 1.84599 15.1702C1.3802 15.1702 0.908741 15.1588 0.522482 14.8691C0.442958 14.801 0.425917 14.6022 0.369114 14.5681C0.198706 14.4601 0.215747 14.2329 0.170305 14.0682C0.113502 14.0341 -0.000103878 14.0228 0.0055764 13.9262C0.0680595 13.4491 0.306631 13.0174 0.596326 12.6879C0.664489 12.5629 0.812176 12.5118 0.829217 12.3528C0.829217 12.3528 1.09051 11.9892 1.24956 11.8415C1.28364 11.7791 1.23252 11.6768 1.2666 11.62C1.50517 11.1542 1.93687 10.8361 2.29473 10.4158C2.39129 10.3249 2.45378 10.2056 2.60715 10.1829C2.66963 10.1829 2.72643 10.1943 2.76051 10.1318C2.82868 9.9784 2.95364 9.8932 3.04453 9.83072C3.38534 9.59782 3.66936 9.25133 4.05562 9.18884C4.1181 9.16044 4.15218 9.09796 4.20898 9.06956C4.27147 9.01275 4.38507 9.08092 4.44756 9.0582C4.73725 8.92755 4.99854 8.64922 5.29392 8.60945C5.3564 8.58105 5.39048 8.51857 5.41888 8.52425C5.68018 8.54697 5.99259 8.31408 6.23684 8.55833C6.45838 8.51289 6.79351 8.55833 6.92984 8.67762L6.90712 8.6833ZM8.91794 11.495C8.91794 11.461 8.91794 11.4326 8.91794 11.3985C8.80433 11.3303 8.75321 11.1315 8.60552 11.0917C8.57712 11.0917 8.51464 11.1201 8.51464 11.1542C8.50896 11.3474 8.58848 11.478 8.668 11.6427C8.70209 11.5178 8.78729 11.5234 8.84409 11.62C8.87249 11.5916 8.90658 11.5291 8.90658 11.495H8.91794Z" fill="#00943B"/>
<path d="M36.9391 20.4812L35.6156 21.8615L31.9348 18.2716C31.4519 19.1293 30.8726 19.8564 30.2023 20.4585C29.532 21.0549 28.8617 21.5434 28.1971 21.9183L26.9077 20.4471C27.6348 20.0836 28.2539 19.6632 28.7652 19.1804C29.2764 18.6976 29.6967 18.1864 30.0262 17.6581C30.35 17.1241 30.5885 16.5845 30.7419 16.0279C30.8896 15.4712 30.9691 14.9259 30.9691 14.3976V11.8585H33.0027V14.0341C33.0027 14.4601 32.9743 14.8634 32.9231 15.2497C32.8663 15.6359 32.7982 16.0108 32.713 16.3744L36.9391 20.4926V20.4812ZM41.1482 26.7181H39.2226V16.9935H35.2123V15.1417H39.2226V10.2056H41.1482V26.7125V26.7181Z" fill="#231815"/>
<path d="M58.5523 19.504H51.6792V20.4129H55.0873V24.6731H48.5039V25.491H55.5247V27.3428H46.5101V22.9179H53.0765V22.1908H46.4192V20.4129H49.7365V19.504H43.0054V17.692H58.5523V19.504ZM54.9226 13.6647C54.9226 14.1873 54.809 14.6587 54.5875 15.0904C54.3659 15.5221 54.0649 15.8914 53.69 16.2038C53.3037 16.5048 52.8436 16.7434 52.321 16.9138C51.7928 17.0842 51.2247 17.1694 50.6056 17.1694C50.0262 17.1694 49.4809 17.0899 48.964 16.9309C48.4471 16.7718 47.9927 16.5446 47.595 16.2435C47.2088 15.9425 46.902 15.5733 46.6805 15.1472C46.459 14.7155 46.3454 14.2327 46.3454 13.6874C46.3454 13.1421 46.4533 12.6479 46.6692 12.2105C46.885 11.7675 47.1917 11.3926 47.578 11.0745C47.9529 10.7621 48.4016 10.5178 48.9185 10.3474C49.4355 10.177 49.9978 10.0918 50.6056 10.0918C51.2134 10.0918 51.7587 10.177 52.2813 10.3474C52.8095 10.5178 53.264 10.7564 53.6502 11.0745C54.0365 11.3755 54.3432 11.7504 54.5761 12.1878C54.8033 12.6309 54.9226 13.1251 54.9226 13.6647ZM52.9288 13.642C52.9288 13.0739 52.7016 12.6252 52.2415 12.3014C51.7814 11.972 51.2361 11.8129 50.6113 11.8129C49.9864 11.8129 49.4127 11.972 48.9697 12.2957C48.5266 12.6138 48.3108 13.0683 48.3108 13.6477C48.3108 14.227 48.5323 14.6417 48.9697 14.9541C49.4127 15.2665 49.958 15.4256 50.6113 15.4256C51.2645 15.4256 51.7814 15.2836 52.2415 14.9939C52.7016 14.7042 52.9288 14.2554 52.9288 13.6533V13.642Z" fill="#231815"/>
<path d="M74.8831 20.691H59.3589V18.862H74.8831V20.691ZM71.509 27.337H69.5664V23.5539H62.6194V21.7021H71.509V27.337ZM71.4749 17.9134H62.6932V10.7676H71.3613V12.5966H64.6131V13.3748H71.1455V15.2266H64.6131V16.0786H71.4692V17.9077L71.4749 17.9134Z" fill="#231815"/>
<path d="M83.5909 18.6465H76.2065V11.1031H78.1265V13.2786H81.6483V11.1031H83.5909V18.6465ZM81.6483 16.8174V15.1133H78.1265V16.8174H81.6483ZM89.0497 27.3373H80.143V22.7817H86.6185V21.8388H80.0521V20.004H88.6123V24.5596H82.1765V25.5026H89.0497V27.3316V27.3373ZM89.1973 19.4815H87.2944V17.7206H84.176V15.9029H87.2944V14.5964H84.176V12.7617H87.2944V10.2056H89.1973V19.4758V19.4815Z" fill="#231815"/>
<path d="M101.029 20.5377L99.7059 21.918L96.0421 18.311C95.5707 19.1801 94.997 19.9185 94.3267 20.515C93.6564 21.1114 92.9748 21.5999 92.2875 21.9748L90.998 20.5036C91.7365 20.106 92.3613 19.6629 92.8782 19.1801C93.3894 18.6973 93.8098 18.1917 94.1392 17.6748C94.4517 17.1409 94.6846 16.6069 94.8379 16.0616C94.9913 15.5163 95.0651 14.9767 95.0651 14.4484V11.8525H97.0987V14.0849C97.0987 14.5109 97.0703 14.9085 97.0191 15.2891C96.9623 15.6697 96.8942 16.0332 96.809 16.3854L101.035 20.5377H101.029ZM105 26.7178H103.057V10.2109H105V26.7178Z" fill="#231815"/>
</g>
<defs>
<clipPath id="clip0_5646_5979">
<rect width="105" height="26.7314" fill="white" transform="translate(0 0.634277)"/>
</clipPath>
</defs>
</svg>
