<svg width="280" height="62" viewBox="0 0 280 62" fill="none" xmlns="http://www.w3.org/2000/svg">
<g clip-path="url(#clip0_137_6114)">
<path d="M0 42.334C6.63499e-05 53.3796 8.95435 62.334 20 62.334H0V42.334ZM280 62.334H120.939C128.913 62.334 136.124 57.5978 139.292 50.2812L147.091 32.2744C150.259 24.9581 157.47 20.2227 165.443 20.2227H260C271.046 20.2227 280 11.2683 280 0.222656V62.334ZM20 -271.777C8.95431 -271.777 0 -262.823 0 -251.777V-271.777H20ZM280 -251.777C280 -262.823 271.046 -271.777 260 -271.777H280V-251.777Z" fill="white"/>
</g>
<defs>
<clipPath id="clip0_137_6114">
<rect width="280" height="62" fill="white"/>
</clipPath>
</defs>
</svg>
