<svg width="40" height="40" viewBox="0 0 40 40" fill="none" xmlns="http://www.w3.org/2000/svg">
<g clip-path="url(#clip0_5684_4512)">
<circle cx="20" cy="20" r="20" fill="#FDDC7E"/>
<path d="M20 25.0417C18.8954 25.0417 18 25.9278 18 27.0208C18 28.1139 18.8954 29 20 29C21.1046 29 22 28.1139 22 27.0208C22 25.9278 21.1046 25.0417 20 25.0417Z" fill="#1A1A1A"/>
<path d="M20 10C18.8954 10 18 10.8861 18 11.9792V21.4792C18 22.5722 18.8954 23.4583 20 23.4583C21.1046 23.4583 22 22.5722 22 21.4792V11.9792C22 10.8861 21.1046 10 20 10Z" fill="#1A1A1A"/>
</g>
<defs>
<clipPath id="clip0_5684_4512">
<rect width="40" height="40" rx="20" fill="white"/>
</clipPath>
</defs>
</svg>
