<svg width="32" height="32" viewBox="0 0 32 32" fill="none" xmlns="http://www.w3.org/2000/svg">
<rect width="32" height="32" rx="16" fill="#111111"/>
<path d="M9 10C9 9.44687 9.44687 9 10 9H21C23.2094 9 25 10.7906 25 13C25 15.2094 23.2094 17 21 17C21 18.6562 19.6562 20 18 20H12C10.3438 20 9 18.6562 9 17V10ZM23 13C23 11.8969 22.1031 11 21 11V15C22.1031 15 23 14.1031 23 13ZM9 22H21C21.5531 22 22 22.4469 22 23C22 23.5531 21.5531 24 21 24H9C8.44687 24 8 23.5531 8 23C8 22.4469 8.44687 22 9 22Z" fill="white"/>
</svg>
