<svg width="32" height="32" viewBox="0 0 32 32" fill="none" xmlns="http://www.w3.org/2000/svg">
<rect width="32" height="32" rx="16" fill="#278352"/>
<path d="M15.3533 9.86C17.0719 9.86 18.4052 10.3933 19.3533 11.46C20.3133 12.5267 20.7933 14.0556 20.7933 16.0467C20.7933 17.4452 20.5326 18.6481 20.0111 19.6556C19.5015 20.6511 18.7785 21.4096 17.8422 21.9311C16.9178 22.4407 15.8393 22.6956 14.6067 22.6956C13.9667 22.6956 13.3563 22.6244 12.7756 22.4822C12.2067 22.34 11.7089 22.1385 11.2822 21.8778L12.2244 20.0289C12.817 20.4319 13.5993 20.6333 14.5711 20.6333C15.543 20.6333 16.337 20.3785 16.9533 19.8689C17.5815 19.3474 17.9785 18.5948 18.1444 17.6111C18.2393 17.2319 18.2748 16.8111 18.2511 16.3489C17.9193 16.8111 17.4689 17.1667 16.9 17.4156C16.343 17.6526 15.7089 17.7711 14.9978 17.7711C14.1919 17.7711 13.463 17.6111 12.8111 17.2911C12.1711 16.9711 11.6674 16.5207 11.3 15.94C10.9326 15.3593 10.7489 14.6896 10.7489 13.9311C10.7489 13.1252 10.9504 12.4141 11.3533 11.7978C11.7563 11.1815 12.3074 10.7074 13.0067 10.3756C13.7059 10.0319 14.4881 9.86 15.3533 9.86ZM15.5489 15.8867C16.2481 15.8867 16.817 15.6911 17.2556 15.3C17.7059 14.9089 17.9311 14.4111 17.9311 13.8067C17.9311 13.2141 17.7119 12.7222 17.2733 12.3311C16.8467 11.94 16.2541 11.7444 15.4956 11.7444C14.8081 11.7444 14.2511 11.9341 13.8244 12.3133C13.3978 12.6807 13.1844 13.1785 13.1844 13.8067C13.1844 14.4348 13.3978 14.9385 13.8244 15.3178C14.2511 15.697 14.8259 15.8867 15.5489 15.8867Z" fill="white"/>
</svg>
