<svg width="32" height="32" viewBox="0 0 32 32" fill="none" xmlns="http://www.w3.org/2000/svg">
<rect width="32" height="32" rx="16" fill="#111111"/>
<path d="M15.9578 15.4067C17.2615 15.4659 18.257 15.8156 18.9444 16.4556C19.6319 17.0837 19.9756 17.9074 19.9756 18.9267C19.9756 19.6378 19.8037 20.2719 19.46 20.8289C19.1163 21.3859 18.6067 21.8244 17.9311 22.1444C17.2556 22.4644 16.4319 22.6244 15.46 22.6244C14.5593 22.6244 13.7059 22.4822 12.9 22.1978C12.1059 21.9015 11.4719 21.5104 10.9978 21.0244L11.5844 20.0111C11.9993 20.4378 12.5444 20.7874 13.22 21.06C13.9074 21.3207 14.6422 21.4511 15.4244 21.4511C16.4556 21.4511 17.2437 21.2259 17.7889 20.7756C18.3459 20.3252 18.6244 19.7089 18.6244 18.9267C18.6244 18.1444 18.3459 17.5341 17.7889 17.0956C17.2437 16.657 16.4081 16.4378 15.2822 16.4378H14.3933V15.5311L17.8244 11.1933H11.4778V10.0556H19.4778V10.9622L15.9578 15.4067Z" fill="white"/>
</svg>
