<svg width="32" height="32" viewBox="0 0 32 32" fill="none" xmlns="http://www.w3.org/2000/svg">
<rect width="32" height="32" rx="16" fill="#111111"/>
<path d="M21 24H12C10.3438 24 9 22.6562 9 21V11C9 9.34375 10.3438 8 12 8H21.5C22.3281 8 23 8.67188 23 9.5V18.5C23 19.1531 22.5813 19.7094 22 19.9156V22C22.5531 22 23 22.4469 23 23C23 23.5531 22.5531 24 22 24H21ZM12 20C11.4469 20 11 20.4469 11 21C11 21.5531 11.4469 22 12 22H20V20H12ZM13 12.75C13 13.1656 13.3344 13.5 13.75 13.5H19.25C19.6656 13.5 20 13.1656 20 12.75C20 12.3344 19.6656 12 19.25 12H13.75C13.3344 12 13 12.3344 13 12.75ZM13.75 15C13.3344 15 13 15.3344 13 15.75C13 16.1656 13.3344 16.5 13.75 16.5H19.25C19.6656 16.5 20 16.1656 20 15.75C20 15.3344 19.6656 15 19.25 15H13.75Z" fill="white"/>
</svg>
