<svg width="32" height="32" viewBox="0 0 32 32" fill="none" xmlns="http://www.w3.org/2000/svg">
<rect width="32" height="32" rx="16" fill="#278352"/>
<path d="M15.0333 15.1578C18.4822 15.1578 20.2067 16.3904 20.2067 18.8556C20.2067 19.5667 20.0348 20.2067 19.6911 20.7756C19.3593 21.3444 18.8496 21.7948 18.1622 22.1267C17.4867 22.4585 16.6511 22.6244 15.6556 22.6244C14.7667 22.6244 13.9193 22.4822 13.1133 22.1978C12.3074 21.9015 11.6733 21.5104 11.2111 21.0244L11.8156 20.0111C12.2185 20.4378 12.7578 20.7874 13.4333 21.06C14.1207 21.3207 14.8556 21.4511 15.6378 21.4511C16.657 21.4511 17.4393 21.22 17.9844 20.7578C18.5415 20.2837 18.82 19.6556 18.82 18.8733C18.82 18.02 18.5119 17.38 17.8956 16.9533C17.2793 16.5148 16.2244 16.2956 14.7311 16.2956H12.0644L12.7044 10.0556H19.5133V11.1933H13.8422L13.4156 15.1578H15.0333Z" fill="white"/>
</svg>
