<svg width="22" height="26" viewBox="0 0 22 26" fill="none" xmlns="http://www.w3.org/2000/svg">
<path d="M4.71429 0C2.11161 0 0 2.18359 0 4.875V19.5C0 21.0133 1.00179 22.2879 2.35714 22.6484V24.375C2.35714 25.2738 3.05937 26 3.92857 26H4.71429C5.58348 26 6.28571 25.2738 6.28571 24.375V22.75H15.7143V24.375C15.7143 25.2738 16.4165 26 17.2857 26H18.0714C18.9406 26 19.6429 25.2738 19.6429 24.375V22.6484C20.9982 22.2879 22 21.0133 22 19.5V4.875C22 2.18359 19.8884 0 17.2857 0H4.71429ZM3.14286 6.5C3.14286 5.60117 3.84509 4.875 4.71429 4.875H17.2857C18.1549 4.875 18.8571 5.60117 18.8571 6.5V11.375C18.8571 12.2738 18.1549 13 17.2857 13H4.71429C3.84509 13 3.14286 12.2738 3.14286 11.375V6.5ZM4.71429 16.25C5.13105 16.25 5.53075 16.4212 5.82545 16.726C6.12015 17.0307 6.28571 17.444 6.28571 17.875C6.28571 18.306 6.12015 18.7193 5.82545 19.024C5.53075 19.3288 5.13105 19.5 4.71429 19.5C4.29752 19.5 3.89782 19.3288 3.60312 19.024C3.30842 18.7193 3.14286 18.306 3.14286 17.875C3.14286 17.444 3.30842 17.0307 3.60312 16.726C3.89782 16.4212 4.29752 16.25 4.71429 16.25ZM17.2857 16.25C17.7025 16.25 18.1022 16.4212 18.3969 16.726C18.6916 17.0307 18.8571 17.444 18.8571 17.875C18.8571 18.306 18.6916 18.7193 18.3969 19.024C18.1022 19.3288 17.7025 19.5 17.2857 19.5C16.8689 19.5 16.4692 19.3288 16.1745 19.024C15.8798 18.7193 15.7143 18.306 15.7143 17.875C15.7143 17.444 15.8798 17.0307 16.1745 16.726C16.4692 16.4212 16.8689 16.25 17.2857 16.25Z" fill="#344054"/>
</svg>
