<svg width="32" height="32" viewBox="0 0 32 32" fill="none" xmlns="http://www.w3.org/2000/svg">
<rect width="32" height="32" rx="16" fill="#111111"/>
<path d="M8.37188 9.5C7.61563 9.5 7 10.1156 7 10.8719V21.1281C7 21.8875 7.61563 22.5 8.37188 22.5C8.54375 22.5 8.70625 22.4688 8.8625 22.4094C9.26562 22.2563 12.0938 21.25 16 21.25C19.9062 21.25 22.7344 22.2594 23.1375 22.4094C23.2938 22.4688 23.4562 22.5 23.6281 22.5C24.3875 22.5 25 21.8844 25 21.1281V10.8719C25 10.1125 24.3844 9.5 23.6281 9.5C23.4562 9.5 23.2938 9.53125 23.1375 9.59063C22.7344 9.74375 19.9062 10.75 16 10.75C12.0938 10.75 9.26562 9.74063 8.8625 9.59063C8.70625 9.53125 8.54375 9.5 8.37188 9.5ZM9.25 13.5C9.25 13.1685 9.3817 12.8505 9.61612 12.6161C9.85054 12.3817 10.1685 12.25 10.5 12.25C10.8315 12.25 11.1495 12.3817 11.3839 12.6161C11.6183 12.8505 11.75 13.1685 11.75 13.5C11.75 13.8315 11.6183 14.1495 11.3839 14.3839C11.1495 14.6183 10.8315 14.75 10.5 14.75C10.1685 14.75 9.85054 14.6183 9.61612 14.3839C9.3817 14.1495 9.25 13.8315 9.25 13.5ZM17.5031 13C17.7375 13 17.9594 13.1125 18.1 13.3L21.9906 18.5063C22.175 18.7531 22.1906 19.0844 22.0312 19.3469C21.8719 19.6094 21.5688 19.7469 21.2656 19.6938C19.8344 19.45 18.0375 19.25 16.0031 19.25C13.9531 19.25 12.1469 19.4531 10.7125 19.7C10.4062 19.7531 10.0969 19.6094 9.94062 19.3406C9.78437 19.0719 9.80625 18.7344 10 18.4906L12.1656 15.7812C12.3094 15.6031 12.525 15.5 12.75 15.5C12.975 15.5 13.1937 15.6031 13.3344 15.7812L14.1937 16.8562L16.9031 13.2969C17.0469 13.1094 17.2688 13 17.5031 13Z" fill="white"/>
</svg>
