<svg width="24" height="24" viewBox="0 0 24 24" fill="none" xmlns="http://www.w3.org/2000/svg">
<g clip-path="url(#clip0_5731_7086)">
<path d="M7.50967 1.17245C7.13936 0.286508 6.17373 -0.182242 5.25498 0.0661952L4.99717 0.136508C1.96905 0.961508 -0.618454 3.89588 0.136233 7.46776C1.8753 15.6709 8.32998 22.1256 16.5331 23.8646C20.1097 24.624 23.0394 22.0318 23.8644 19.0037L23.9347 18.7459C24.1878 17.8224 23.7144 16.8568 22.8331 16.4912L18.2722 14.5928C17.4987 14.2693 16.6034 14.4943 16.069 15.1459L14.2597 17.3584C10.9644 15.7224 8.31123 12.9849 6.7878 9.62401L8.85967 7.93651C9.51123 7.40682 9.73155 6.51151 9.4128 5.73338L7.50967 1.17245Z" fill="#111111"/>
</g>
<defs>
<clipPath id="clip0_5731_7086">
<rect width="24" height="24" fill="white"/>
</clipPath>
</defs>
</svg>
