<svg width="32" height="32" viewBox="0 0 32 32" fill="none" xmlns="http://www.w3.org/2000/svg">
<rect width="32" height="32" rx="16" fill="#111111"/>
<path d="M12.6467 22.5H10.14V12.0644H7.54444V10.0556H12.6467V22.5ZM20.5052 22.6956C19.4978 22.6956 18.5971 22.4407 17.803 21.9311C17.0089 21.4215 16.3867 20.6867 15.9363 19.7267C15.4859 18.7548 15.2608 17.6052 15.2608 16.2778C15.2608 14.9504 15.4859 13.8067 15.9363 12.8467C16.3867 11.8748 17.0089 11.1341 17.803 10.6244C18.5971 10.1148 19.4978 9.86 20.5052 9.86C21.5245 9.86 22.4311 10.1148 23.2252 10.6244C24.0193 11.1341 24.6356 11.8748 25.0741 12.8467C25.5245 13.8067 25.7497 14.9504 25.7497 16.2778C25.7497 17.6052 25.5245 18.7548 25.0741 19.7267C24.6356 20.6867 24.0193 21.4215 23.2252 21.9311C22.4311 22.4407 21.5245 22.6956 20.5052 22.6956ZM20.5052 20.5622C21.3467 20.5622 22.0104 20.2067 22.4963 19.4956C22.9941 18.7726 23.243 17.7 23.243 16.2778C23.243 14.8556 22.9941 13.7889 22.4963 13.0778C22.0104 12.3548 21.3467 11.9933 20.5052 11.9933C19.6756 11.9933 19.0119 12.3548 18.5141 13.0778C18.0282 13.7889 17.7852 14.8556 17.7852 16.2778C17.7852 17.7 18.0282 18.7726 18.5141 19.4956C19.0119 20.2067 19.6756 20.5622 20.5052 20.5622Z" fill="white"/>
</svg>
