<svg width="20" height="29" viewBox="0 0 20 29" fill="none" xmlns="http://www.w3.org/2000/svg">
<path d="M0 5.11768C0 2.29229 2.23902 0 4.99874 0H14.9962C17.756 0 19.995 2.29229 19.995 5.11768V18.7648C19.995 20.9025 18.714 22.7364 16.8968 23.4987L19.7034 26.8945C20.1512 27.4329 20.0835 28.2432 19.5576 28.6963C19.0317 29.1494 18.2402 29.0855 17.7976 28.5471L13.9444 23.8825H6.06618L2.21299 28.5471C1.76518 29.0855 0.97892 29.1548 0.453011 28.6963C-0.0728984 28.2379 -0.14059 27.4329 0.307214 26.8945L3.1138 23.4987C1.28093 22.7364 0 20.9025 0 18.7648V5.11768ZM3.3325 6.82357V11.9413C3.3325 12.8848 4.0771 13.6471 4.99874 13.6471H8.7478V5.11768H4.99874C4.0771 5.11768 3.3325 5.88 3.3325 6.82357ZM11.2472 13.6471H14.9962C15.9179 13.6471 16.6625 12.8848 16.6625 11.9413V6.82357C16.6625 5.88 15.9179 5.11768 14.9962 5.11768H11.2472V13.6471ZM4.99874 20.4707C5.44066 20.4707 5.86448 20.291 6.17696 19.9711C6.48944 19.6512 6.66499 19.2173 6.66499 18.7648C6.66499 18.3124 6.48944 17.8785 6.17696 17.5586C5.86448 17.2387 5.44066 17.0589 4.99874 17.0589C4.55683 17.0589 4.13301 17.2387 3.82053 17.5586C3.50805 17.8785 3.3325 18.3124 3.3325 18.7648C3.3325 19.2173 3.50805 19.6512 3.82053 19.9711C4.13301 20.291 4.55683 20.4707 4.99874 20.4707ZM16.6625 18.7648C16.6625 18.3124 16.4869 17.8785 16.1744 17.5586C15.862 17.2387 15.4381 17.0589 14.9962 17.0589C14.5543 17.0589 14.1305 17.2387 13.818 17.5586C13.5055 17.8785 13.33 18.3124 13.33 18.7648C13.33 19.2173 13.5055 19.6512 13.818 19.9711C14.1305 20.291 14.5543 20.4707 14.9962 20.4707C15.4381 20.4707 15.862 20.291 16.1744 19.9711C16.4869 19.6512 16.6625 19.2173 16.6625 18.7648Z" fill="#344054"/>
</svg>
