<svg width="18" height="18" viewBox="0 0 18 18" fill="none" xmlns="http://www.w3.org/2000/svg">
<path d="M9.75 4.49989L4.87637 5.47461C4.60412 5.52906 4.468 5.55629 4.35714 5.62249C4.25914 5.68102 4.17579 5.76114 4.11345 5.85676C4.04292 5.96491 4.01035 6.09985 3.94521 6.36974L1.5 16.4999M1.5 16.4999L11.6301 14.0547C11.9 13.9895 12.035 13.957 12.1431 13.8864C12.2387 13.8241 12.3189 13.7407 12.3774 13.6427C12.4436 13.5319 12.4708 13.3958 12.5253 13.1235L13.5 8.24989M1.5 16.4999L7.1895 10.8104M15.6515 5.90136L12.0985 2.34841C11.8015 2.0514 11.653 1.9029 11.4818 1.84725C11.3311 1.79831 11.1689 1.79831 11.0182 1.84725C10.847 1.9029 10.6985 2.0514 10.4015 2.34842L9.84853 2.90136C9.55152 3.19837 9.40301 3.34688 9.34737 3.51812C9.29842 3.66876 9.29842 3.83102 9.34737 3.98165C9.40301 4.1529 9.55152 4.3014 9.84853 4.59841L13.4015 8.15136C13.6985 8.44837 13.847 8.59688 14.0182 8.65252C14.1689 8.70146 14.3311 8.70146 14.4818 8.65252C14.653 8.59688 14.8015 8.44837 15.0985 8.15136L15.6515 7.59841C15.9485 7.3014 16.097 7.1529 16.1526 6.98165C16.2016 6.83102 16.2016 6.66876 16.1526 6.51812C16.097 6.34688 15.9485 6.19837 15.6515 5.90136ZM8.25 8.24989C9.07843 8.24989 9.75 8.92146 9.75 9.74989C9.75 10.5783 9.07843 11.2499 8.25 11.2499C7.42157 11.2499 6.75 10.5783 6.75 9.74989C6.75 8.92146 7.42157 8.24989 8.25 8.24989Z" stroke="white" stroke-width="1.5" stroke-linecap="round" stroke-linejoin="round"/>
</svg>
