<svg width="32" height="32" viewBox="0 0 32 32" fill="none" xmlns="http://www.w3.org/2000/svg">
<rect width="32" height="32" rx="16" fill="#111111"/>
<path d="M16.6689 14.7844C17.4748 14.7844 18.1978 14.9444 18.8378 15.2644C19.4896 15.5844 19.9993 16.0348 20.3667 16.6156C20.7341 17.1963 20.9178 17.8659 20.9178 18.6244C20.9178 19.4304 20.7163 20.1415 20.3133 20.7578C19.9104 21.3741 19.3593 21.8541 18.66 22.1978C17.9726 22.5296 17.1963 22.6956 16.3311 22.6956C14.6126 22.6956 13.2733 22.1622 12.3133 21.0956C11.3533 20.017 10.8733 18.4881 10.8733 16.5089C10.8733 15.1104 11.1281 13.9133 11.6378 12.9178C12.1593 11.9104 12.8822 11.1519 13.8067 10.6422C14.743 10.1207 15.8274 9.86 17.06 9.86C17.7 9.86 18.3104 9.93111 18.8911 10.0733C19.4719 10.2156 19.9756 10.417 20.4022 10.6778L19.46 12.5267C18.8556 12.1119 18.0733 11.9044 17.1133 11.9044C16.1296 11.9044 15.3178 12.1711 14.6778 12.7044C14.0496 13.2378 13.6585 14.0141 13.5044 15.0333C13.4452 15.4363 13.4215 15.8215 13.4333 16.1889C13.7652 15.7267 14.2096 15.377 14.7667 15.14C15.3237 14.903 15.9578 14.7844 16.6689 14.7844ZM16.1889 20.8111C16.8763 20.8111 17.4333 20.6274 17.86 20.26C18.2867 19.8807 18.5 19.377 18.5 18.7489C18.5 18.1089 18.2867 17.6052 17.86 17.2378C17.4333 16.8585 16.8585 16.6689 16.1356 16.6689C15.4363 16.6689 14.8615 16.8644 14.4111 17.2556C13.9607 17.6467 13.7356 18.1444 13.7356 18.7489C13.7356 19.3415 13.9548 19.8333 14.3933 20.2244C14.8319 20.6156 15.4304 20.8111 16.1889 20.8111Z" fill="white"/>
</svg>
