<svg width="32" height="32" viewBox="0 0 32 32" fill="none" xmlns="http://www.w3.org/2000/svg">
<rect width="32" height="32" rx="16" fill="#111111"/>
<path d="M22.5312 8.21836C22.2375 7.92461 21.7625 7.92461 21.4719 8.21836L19.9687 9.71836C19.8937 9.79336 19.8344 9.88398 19.7969 9.98398L19.3156 11.2652L16.8937 13.6902C15.4844 12.7715 13.7906 12.7465 12.8 13.7402C12.4562 14.084 12.2375 14.509 12.1312 14.9777C12.0156 15.4965 11.5344 15.9371 11.0031 15.9652C10.2031 16.0059 9.46249 16.2996 8.89999 16.859C7.49999 18.259 7.76249 20.7902 9.48437 22.5121C11.2062 24.234 13.7375 24.4996 15.1375 23.0996C15.6969 22.5402 15.9937 21.7965 16.0312 20.9965C16.0594 20.4652 16.5 19.9871 17.0187 19.8684C17.4875 19.7621 17.9125 19.5402 18.2562 19.1996C19.25 18.2059 19.225 16.5152 18.3062 15.1059L20.7312 12.6809L22.0125 12.1996C22.1125 12.1621 22.2031 12.1027 22.2781 12.0277L23.7781 10.5277C24.0719 10.234 24.0719 9.75898 23.7781 9.46836L22.5312 8.21836ZM14.5 15.9996C14.8978 15.9996 15.2793 16.1576 15.5607 16.4389C15.842 16.7203 16 17.1018 16 17.4996C16 17.8974 15.842 18.279 15.5607 18.5603C15.2793 18.8416 14.8978 18.9996 14.5 18.9996C14.1022 18.9996 13.7206 18.8416 13.4393 18.5603C13.158 18.279 13 17.8974 13 17.4996C13 17.1018 13.158 16.7203 13.4393 16.4389C13.7206 16.1576 14.1022 15.9996 14.5 15.9996Z" fill="white"/>
</svg>
