<svg width="32" height="32" viewBox="0 0 32 32" fill="none" xmlns="http://www.w3.org/2000/svg">
<rect width="32" height="32" rx="16" fill="#111111"/>
<path d="M18.9089 15.9578C19.5726 16.2422 20.0822 16.6393 20.4378 17.1489C20.7933 17.6585 20.9711 18.2511 20.9711 18.9267C20.9711 19.6852 20.7578 20.3489 20.3311 20.9178C19.9163 21.4867 19.3178 21.9252 18.5356 22.2333C17.7533 22.5415 16.8467 22.6956 15.8156 22.6956C14.7844 22.6956 13.8837 22.5415 13.1133 22.2333C12.343 21.9252 11.7444 21.4867 11.3178 20.9178C10.903 20.3489 10.6956 19.6852 10.6956 18.9267C10.6956 18.2393 10.8733 17.6467 11.2289 17.1489C11.5844 16.6393 12.0941 16.2422 12.7578 15.9578C12.2363 15.6852 11.8333 15.3296 11.5489 14.8911C11.2763 14.4526 11.14 13.943 11.14 13.3622C11.14 12.6511 11.3356 12.0348 11.7267 11.5133C12.1178 10.98 12.663 10.5711 13.3622 10.2867C14.0733 10.0022 14.8911 9.86 15.8156 9.86C16.7519 9.86 17.5756 10.0022 18.2867 10.2867C18.9978 10.5711 19.5489 10.98 19.94 11.5133C20.3311 12.0348 20.5267 12.6511 20.5267 13.3622C20.5267 13.9311 20.3844 14.4407 20.1 14.8911C19.8274 15.3296 19.4304 15.6852 18.9089 15.9578ZM15.8156 11.7089C15.14 11.7089 14.6067 11.863 14.2156 12.1711C13.8244 12.4793 13.6289 12.9059 13.6289 13.4511C13.6289 13.9726 13.8244 14.3874 14.2156 14.6956C14.6067 15.0037 15.14 15.1578 15.8156 15.1578C16.503 15.1578 17.0481 15.0037 17.4511 14.6956C17.8541 14.3874 18.0556 13.9726 18.0556 13.4511C18.0556 12.9178 17.8481 12.497 17.4333 12.1889C17.0304 11.8689 16.4911 11.7089 15.8156 11.7089ZM15.8156 20.8289C16.6333 20.8289 17.2733 20.6511 17.7356 20.2956C18.2096 19.94 18.4467 19.46 18.4467 18.8556C18.4467 18.2511 18.2096 17.777 17.7356 17.4333C17.2733 17.0778 16.6333 16.9 15.8156 16.9C15.0096 16.9 14.3756 17.0778 13.9133 17.4333C13.4511 17.777 13.22 18.2511 13.22 18.8556C13.22 19.46 13.4511 19.94 13.9133 20.2956C14.3874 20.6511 15.0215 20.8289 15.8156 20.8289Z" fill="white"/>
</svg>
