<svg width="32" height="32" viewBox="0 0 32 32" fill="none" xmlns="http://www.w3.org/2000/svg">
<rect width="32" height="32" rx="16" fill="#278352"/>
<path d="M20.2244 22.5H11.4778V21.5933L16.6333 16.5089C17.2852 15.8689 17.7237 15.3178 17.9489 14.8556C18.1741 14.3933 18.2867 13.9193 18.2867 13.4333C18.2867 12.7104 18.0378 12.1415 17.54 11.7267C17.0422 11.3119 16.3311 11.1044 15.4067 11.1044C13.9489 11.1044 12.8348 11.5785 12.0644 12.5267L11.0867 11.8156C11.5607 11.2111 12.1711 10.7489 12.9178 10.4289C13.6763 10.097 14.5415 9.93111 15.5133 9.93111C16.7696 9.93111 17.7711 10.2393 18.5178 10.8556C19.2763 11.46 19.6556 12.2837 19.6556 13.3267C19.6556 13.9667 19.5074 14.583 19.2111 15.1756C18.9267 15.7563 18.3933 16.4259 17.6111 17.1844L13.4333 21.3444H20.2244V22.5Z" fill="white"/>
</svg>
