<svg width="24" height="25" viewBox="0 0 24 25" fill="none" xmlns="http://www.w3.org/2000/svg">
<g clip-path="url(#clip0_5731_7070)">
<path d="M2.9998 9.34063C2.9998 4.45625 7.03105 0.5 11.9998 0.5C16.9686 0.5 20.9998 4.45625 20.9998 9.34063C20.9998 14.9328 15.3654 21.6359 13.0123 24.1906C12.4592 24.7906 11.5357 24.7906 10.9826 24.1906C8.62949 21.6359 2.99512 14.9328 2.99512 9.34063H2.9998ZM11.9998 12.5C12.7955 12.5 13.5585 12.1839 14.1211 11.6213C14.6837 11.0587 14.9998 10.2956 14.9998 9.5C14.9998 8.70435 14.6837 7.94129 14.1211 7.37868C13.5585 6.81607 12.7955 6.5 11.9998 6.5C11.2042 6.5 10.4411 6.81607 9.87848 7.37868C9.31588 7.94129 8.9998 8.70435 8.9998 9.5C8.9998 10.2956 9.31588 11.0587 9.87848 11.6213C10.4411 12.1839 11.2042 12.5 11.9998 12.5Z" fill="#278352"/>
</g>
<defs>
<clipPath id="clip0_5731_7070">
<rect width="24" height="24" fill="white" transform="translate(0 0.5)"/>
</clipPath>
</defs>
</svg>
