<svg width="18" height="18" viewBox="0 0 18 18" fill="none" xmlns="http://www.w3.org/2000/svg">
<g clip-path="url(#clip0_6772_7347)">
<path d="M10.875 4.12492L12 5.24992M8.62497 6.37492L9.74997 7.49992M6.37497 8.62492L7.49997 9.74992M4.12497 10.8749L5.24997 11.9999M1.92421 13.1742L4.82568 16.0757C4.97419 16.2242 5.04844 16.2984 5.13406 16.3263C5.20938 16.3507 5.29051 16.3507 5.36582 16.3263C5.45145 16.2984 5.5257 16.2242 5.67421 16.0757L16.0757 5.67421C16.2242 5.5257 16.2984 5.45145 16.3263 5.36582C16.3507 5.29051 16.3507 5.20938 16.3263 5.13406C16.2984 5.04844 16.2242 4.97419 16.0757 4.82568L13.1742 1.92421C13.0257 1.7757 12.9514 1.70145 12.8658 1.67363C12.7905 1.64916 12.7094 1.64916 12.6341 1.67363C12.5484 1.70145 12.4742 1.7757 12.3257 1.92421L1.92421 12.3257C1.7757 12.4742 1.70145 12.5484 1.67363 12.6341C1.64916 12.7094 1.64916 12.7905 1.67363 12.8658C1.70145 12.9514 1.7757 13.0257 1.92421 13.1742Z" stroke="#666666" stroke-width="1.5" stroke-linecap="round" stroke-linejoin="round"/>
</g>
<defs>
<clipPath id="clip0_6772_7347">
<rect width="18" height="18" fill="white"/>
</clipPath>
</defs>
</svg>
