<svg width="18" height="18" viewBox="0 0 18 18" fill="none" xmlns="http://www.w3.org/2000/svg">
<path d="M9 16.5C10.9891 16.5 12.8968 15.7098 14.3033 14.3033C15.7098 12.8968 16.5 10.9891 16.5 9C16.5 7.01088 15.7098 5.10322 14.3033 3.6967C12.8968 2.29018 10.9891 1.5 9 1.5C7.01088 1.5 5.10322 2.29018 3.6967 3.6967C2.29018 5.10322 1.5 7.01088 1.5 9C1.5 10.9891 2.29018 12.8968 3.6967 14.3033C5.10322 15.7098 7.01088 16.5 9 16.5ZM7.82812 11.3438H8.53125V9.46875H7.82812C7.43848 9.46875 7.125 9.15527 7.125 8.76562C7.125 8.37598 7.43848 8.0625 7.82812 8.0625H9.23438C9.62402 8.0625 9.9375 8.37598 9.9375 8.76562V11.3438H10.1719C10.5615 11.3438 10.875 11.6572 10.875 12.0469C10.875 12.4365 10.5615 12.75 10.1719 12.75H7.82812C7.43848 12.75 7.125 12.4365 7.125 12.0469C7.125 11.6572 7.43848 11.3438 7.82812 11.3438ZM9 5.25C9.24864 5.25 9.4871 5.34877 9.66291 5.52459C9.83873 5.7004 9.9375 5.93886 9.9375 6.1875C9.9375 6.43614 9.83873 6.6746 9.66291 6.85041C9.4871 7.02623 9.24864 7.125 9 7.125C8.75136 7.125 8.5129 7.02623 8.33709 6.85041C8.16127 6.6746 8.0625 6.43614 8.0625 6.1875C8.0625 5.93886 8.16127 5.7004 8.33709 5.52459C8.5129 5.34877 8.75136 5.25 9 5.25Z" fill="#D42A14"/>
</svg>
